<svg width="155" height="45" viewBox="0 0 155 45" fill="none" xmlns="http://www.w3.org/2000/svg">
<g clip-path="url(#clip0_11_20)">
<path d="M29.2916 19.3001H33.2666C33.4166 20.8834 34.975 21.9251 37.0166 21.9251C39.0583 21.9251 40.2083 21.0751 40.2083 19.8167C40.2083 15.9417 29.6916 19.0751 29.6916 12.2084C29.6916 9.06675 32.3333 6.66675 36.5666 6.66675C40.3166 6.66675 43.5833 8.65841 44 12.3167H39.8416C39.6583 11.1001 38.3916 10.1001 36.5 10.1001C34.8666 10.1001 33.7166 10.8001 33.7166 11.9501C33.7166 15.6084 44.2666 12.2417 44.2666 19.7751C44.2666 23.0251 41.2583 25.4584 37.25 25.4584C32.7916 25.4584 29.675 23.1667 29.3 19.2917" fill="#0E0E0E"/>
<path d="M62.4917 16.05C62.4917 12.95 60.1167 10.5834 56.9583 10.5834C53.8 10.5834 51.4583 13.025 51.4583 16.05C51.4583 19.075 53.875 21.55 56.9583 21.55C60.0417 21.55 62.4917 19.1834 62.4917 16.05ZM66.65 7.04172V25.1H62.4917V21.925C61.1917 24.175 58.9583 25.4667 56.0667 25.4667C51.2333 25.4667 47.375 21.2584 47.375 16.05C47.375 10.8417 51.2417 6.67505 56.0667 6.67505C58.9667 6.67505 61.1917 7.96672 62.4917 10.2167V7.04172H66.65Z" fill="#0E0E0E"/>
<path d="M89.3167 14.8V25.1H85.1583V15.3167C85.1583 12.475 83.4083 10.625 80.775 10.625C78.1417 10.625 76.2833 12.4667 76.2833 15.3167V25.1H72.1583V0H76.2833V9.88333C77.4333 7.85 79.3667 6.675 81.7833 6.675C86.425 6.675 89.325 9.775 89.325 14.8" fill="#0E0E0E"/>
<path d="M110.092 7.1001L103.25 23.6751C103.25 23.6751 101.825 27.7251 98.2 29.2918C97.0333 29.7918 95.7 29.8834 94.0083 29.8168L92.9083 26.2668C93.925 26.3751 95.25 26.4001 96.25 25.8918C98.1416 24.9334 98.6166 23.6084 98.6166 23.6084C97.6666 21.2334 91.4417 7.1001 91.4417 7.1001H95.9L100.767 19.5001L105.633 7.1001H110.092Z" fill="#0E0E0E"/>
<path d="M127.825 16.0917C127.825 13.025 125.408 10.5917 122.325 10.5917C119.242 10.5917 116.75 12.9584 116.75 16.0917C116.75 19.225 119.125 21.5584 122.325 21.5584C125.525 21.5584 127.825 19.1167 127.825 16.0917ZM131.875 16.0917C131.875 21.3 128.05 25.475 123.217 25.475C120.283 25.475 118.05 24.1417 116.75 21.8584V30.7334H112.625V7.04172H116.75V10.2917C118.05 8.00005 120.283 6.67505 123.217 6.67505C128.042 6.67505 131.875 10.8834 131.875 16.0917Z" fill="#0E0E0E"/>
<path d="M150.133 16.05C150.133 12.95 147.758 10.5834 144.6 10.5834C141.442 10.5834 139.1 13.025 139.1 16.05C139.1 19.075 141.517 21.55 144.6 21.55C147.683 21.55 150.133 19.1834 150.133 16.05ZM154.292 7.04172V25.1H150.133V21.925C148.833 24.175 146.6 25.4667 143.708 25.4667C138.875 25.4667 135.017 21.2584 135.017 16.05C135.017 10.8417 138.883 6.67505 143.708 6.67505C146.608 6.67505 148.833 7.96672 150.133 10.2167V7.04172H154.292Z" fill="#0E0E0E"/>
<path d="M15.0083 28.5333H11.075L17.9667 16.0666L11.0583 3.57495H14.9917L21.925 16.0666L15.0083 28.5333Z" fill="#0E0E0E"/>
<path d="M7.14167 3.6084H0C0 3.6084 0.458333 14.1667 8.3 16.0751C0.458333 17.9751 0 28.5334 0 28.5334H7.14167L14.0667 16.0667L7.14167 3.6084Z" fill="#0E0E0E"/>
<path d="M130.317 40.9583C130.475 39.825 131.433 38.8333 132.65 38.8333C133.867 38.8333 134.758 39.75 134.917 40.9583H130.317ZM134.917 42.9416C134.758 43.1583 134.567 43.3417 134.35 43.5083C133.967 43.7916 133.442 44.075 132.717 44.075C131.425 44.075 130.383 43.0166 130.308 41.8083L135.833 41.825L135.858 41.6833C135.875 41.5833 135.9 41.4667 135.9 41.3167C135.9 39.3333 134.5 37.9167 132.642 37.9167C130.783 37.9167 129.317 39.475 129.317 41.4583C129.317 43.4417 130.858 45 132.717 45C133.642 45 134.333 44.6417 134.825 44.2917C135.108 44.075 135.35 43.85 135.55 43.5833L134.908 42.9416H134.917ZM125.067 44.8583H126.058V41.1C126.058 39.7583 127.05 38.9083 128.183 38.9083H128.608V37.9167H128.325C127.533 37.9167 126.992 38.1833 126.608 38.4583C126.392 38.6167 126.208 38.8 126.058 38.9833V38.0583H125.067V44.8583ZM120.533 43.0166C120.533 44.3083 121.225 45 122.4 45C122.667 45 122.908 44.9583 123.083 44.9C123.183 44.8583 123.283 44.8333 123.367 44.7833V43.8583C123.292 43.9 123.2 43.925 123.1 43.975C122.933 44.0333 122.692 44.075 122.45 44.075C121.883 44.075 121.525 43.7333 121.525 43.0166V38.975H123.017V38.05H121.525V35.7833H120.608V37.3417C120.608 37.8083 120.425 38.05 120.042 38.05H119.267V38.975H120.542V43.0166H120.533ZM111.892 44.8583H112.883V41.1C112.883 39.7417 113.808 38.8333 115.008 38.8333C116.083 38.8333 116.85 39.6083 116.85 40.8166V44.8583H117.842V40.8166C117.842 39.05 116.708 37.9083 115.075 37.9083C114.325 37.9083 113.8 38.1916 113.417 38.475C113.2 38.6416 113.017 38.8333 112.875 39.0416V38.05H111.883V44.85L111.892 44.8583ZM104.525 40.9583C104.683 39.825 105.642 38.8333 106.858 38.8333C108.075 38.8333 108.967 39.75 109.125 40.9583H104.525ZM109.125 42.9416C108.967 43.1583 108.767 43.3417 108.558 43.5083C108.175 43.7916 107.65 44.075 106.933 44.075C105.642 44.075 104.6 43.0166 104.525 41.8083L110.05 41.825L110.075 41.6833C110.092 41.5833 110.117 41.4667 110.117 41.3167C110.117 39.3333 108.717 37.9167 106.858 37.9167C105 37.9167 103.533 39.475 103.533 41.4583C103.533 43.4417 105.075 45 106.933 45C107.858 45 108.55 44.6417 109.042 44.2917C109.325 44.075 109.567 43.85 109.767 43.5833L109.133 42.9416H109.125ZM101.9 42.9416C101.742 43.1583 101.558 43.3417 101.35 43.5083C100.967 43.7916 100.442 44.075 99.775 44.075C98.5 44.075 97.3667 42.9417 97.3667 41.4583C97.3667 39.975 98.5 38.8417 99.775 38.8417C100.442 38.8417 100.967 39.125 101.308 39.4083C101.508 39.575 101.675 39.7667 101.833 39.975L102.542 39.2666C102.325 39.025 102.092 38.8 101.817 38.6C101.35 38.2583 100.667 37.9167 99.775 37.9167C97.9167 37.9167 96.375 39.475 96.375 41.4583C96.375 43.4417 97.9167 45 99.775 45C100.667 45 101.358 44.6417 101.858 44.2917C102.142 44.075 102.4 43.85 102.608 43.5833L101.9 42.9416ZM85.6833 44.8583H86.675V41.1C86.675 39.7417 87.6 38.8333 88.8 38.8333C89.875 38.8333 90.6417 39.6083 90.6417 40.8166V44.8583H91.6333V40.8166C91.6333 39.05 90.5 37.9083 88.8667 37.9083C88.1167 37.9083 87.5917 38.1916 87.2084 38.475C86.9917 38.6416 86.8083 38.8333 86.6667 39.0416V38.05H85.675V44.85L85.6833 44.8583ZM80.4417 44.075C79.1 44.075 77.9584 42.925 77.9584 41.4583C77.9584 39.9917 79.0917 38.8417 80.4417 38.8417C81.7917 38.8417 82.925 39.975 82.925 41.4583C82.925 42.9417 81.7917 44.075 80.4417 44.075ZM80.4417 45C82.3583 45 83.9167 43.4417 83.9167 41.4583C83.9167 39.475 82.3583 37.9167 80.4417 37.9167C78.525 37.9167 76.975 39.475 76.975 41.4583C76.975 43.4417 78.5333 45 80.4417 45ZM74.2084 44.8583H75.2V38.0583H74.2084V44.8583ZM74.0667 35.7917C74.0667 36.15 74.35 36.425 74.7084 36.425C75.0667 36.425 75.3417 36.1417 75.3417 35.7917C75.3417 35.4417 75.0583 35.1583 74.7084 35.1583C74.3583 35.1583 74.0667 35.4417 74.0667 35.7917ZM69.675 43.0166C69.675 44.3083 70.3667 45 71.5417 45C71.8083 45 72.05 44.9583 72.225 44.9C72.325 44.8583 72.425 44.8333 72.5084 44.7833V43.8583C72.4417 43.9 72.3417 43.925 72.2417 43.975C72.075 44.0333 71.8334 44.075 71.5917 44.075C71.025 44.075 70.675 43.7333 70.675 43.0166V38.975H72.1667V38.05H70.675V35.7833H69.75V37.3417C69.75 37.8083 69.5667 38.05 69.1833 38.05H68.4083V38.975H69.6833V43.0166H69.675ZM65.9917 41.8167C65.9917 43.175 65.0834 44.0833 63.7917 44.0833C62.875 44.0833 62.375 43.5917 62.375 43.025C62.375 42.3917 62.8 41.975 63.65 41.825L65.9833 41.4V41.825L65.9917 41.8167ZM65.9917 44.8583H66.9833V40.5333C66.9833 39.05 65.85 37.9167 64.2917 37.9167C63.4584 37.9167 62.85 38.225 62.4083 38.55C62.15 38.7333 61.925 38.95 61.7417 39.1833L62.3834 39.8166C62.5417 39.6333 62.7084 39.475 62.8917 39.3167C63.2167 39.075 63.6833 38.825 64.2917 38.825C65.3 38.825 65.9917 39.5167 65.9917 40.525L63.375 40.95C62.0834 41.1583 61.3917 41.875 61.3917 43.0083C61.3917 44 62.3833 44.9917 63.8 44.9917C64.5333 44.9917 65.075 44.7333 65.4584 44.4667C65.675 44.3083 65.8583 44.125 66 43.925V44.85L65.9917 44.8583ZM59.6167 42.9416C59.4583 43.1583 59.275 43.3417 59.0667 43.5083C58.6833 43.7916 58.1583 44.075 57.4917 44.075C56.2167 44.075 55.0833 42.9417 55.0833 41.4583C55.0833 39.975 56.2167 38.8417 57.4917 38.8417C58.1583 38.8417 58.6834 39.125 59.025 39.4083C59.225 39.575 59.3917 39.7667 59.55 39.975L60.2583 39.2666C60.0417 39.025 59.8084 38.8 59.5334 38.6C59.0667 38.2583 58.3833 37.9167 57.4917 37.9167C55.6333 37.9167 54.0917 39.475 54.0917 41.4583C54.0917 43.4417 55.6333 45 57.4917 45C58.3833 45 59.075 44.6417 59.575 44.2917C59.8583 44.075 60.1167 43.85 60.325 43.5833L59.6167 42.9416ZM46.3 42.025C46.3 43.7917 47.5084 45 49.0667 45C49.8 45 50.3417 44.7416 50.725 44.475C50.9333 44.3166 51.125 44.1333 51.2667 43.9333V44.8583H52.2583V38.0583H51.2667V41.8167C51.2667 43.175 50.3417 44.0833 49.2167 44.0833C48.15 44.0833 47.3 43.2333 47.3 42.0333V38.0667H46.3083V42.0333L46.3 42.025ZM40.6333 44.075C39.3417 44.075 38.2917 43 38.2917 41.4583C38.2917 39.9167 39.3417 38.8417 40.6333 38.8417C41.825 38.8417 42.9667 39.975 42.9667 41.4583C42.9667 42.9417 41.8167 44.075 40.6333 44.075ZM42.9667 44.8583H43.9583V34.9417H42.9667V39.05C42.8084 38.8417 42.6083 38.65 42.3834 38.4833C41.9833 38.2 41.4167 37.9167 40.625 37.9167C38.7833 37.9167 37.2917 39.4 37.2917 41.4583C37.2917 43.5167 38.7833 45 40.625 45C41.4167 45 41.9833 44.7167 42.3834 44.4333C42.6083 44.2667 42.8084 44.075 42.9667 43.8666V44.8583ZM30.425 40.9583C30.5833 39.825 31.5417 38.8333 32.7667 38.8333C33.9917 38.8333 34.875 39.75 35.0334 40.9583H30.425ZM35.0334 42.9416C34.875 43.1583 34.675 43.3417 34.4667 43.5083C34.0834 43.7916 33.5583 44.075 32.8417 44.075C31.55 44.075 30.5084 43.0166 30.4334 41.8083L35.9584 41.825L35.9833 41.6833C36 41.5833 36.025 41.4667 36.025 41.3167C36.025 39.3333 34.625 37.9167 32.7667 37.9167C30.9083 37.9167 29.4333 39.475 29.4333 41.4583C29.4333 43.4417 30.975 45 32.8334 45C33.75 45 34.45 44.6417 34.9417 44.2917C35.225 44.075 35.4667 43.85 35.6667 43.5833L35.0334 42.9416Z" fill="#0E0E0E"/>
</g>
<defs>
<clipPath id="clip0_11_20">
<rect width="154.292" height="45" fill="white"/>
</clipPath>
</defs>
</svg>
