<svg width="700" height="292" viewBox="0 0 700 292" fill="none" xmlns="http://www.w3.org/2000/svg">
<path d="M0 0H700V231L664.5 256.5L614.5 292H0V0Z" fill="white"/>
<path d="M42.52 103V86.2H44.32V101.32H52.96V103H42.52ZM60.1553 103.24C56.9153 103.24 54.2753 100.6 54.2753 97.24C54.2753 93.88 56.9153 91.24 60.1553 91.24C63.3953 91.24 66.0353 93.88 66.0353 97.24C66.0353 100.6 63.3953 103.24 60.1553 103.24ZM60.1553 101.68C62.4353 101.68 64.3553 99.76 64.3553 97.24C64.3553 94.72 62.4353 92.8 60.1553 92.8C57.8753 92.8 55.9553 94.72 55.9553 97.24C55.9553 99.736 57.8753 101.68 60.1553 101.68ZM69.0372 103V91.48H70.7172V93.04C70.9812 92.728 71.2932 92.416 71.6532 92.152C72.3012 91.696 73.2132 91.24 74.5572 91.24H75.0372V92.92H74.3172C72.3972 92.92 70.7172 94.36 70.7172 96.64V103H69.0372ZM85.7163 99.76L86.7963 100.84C86.4603 101.296 86.0523 101.68 85.5723 102.04C84.7323 102.64 83.5563 103.24 81.9963 103.24C78.8523 103.24 76.2363 100.6 76.2363 97.24C76.2363 93.88 78.8763 91.24 81.8763 91.24C85.0203 91.24 87.3963 93.64 87.3963 97C87.3963 97.264 87.3483 97.456 87.3243 97.624L87.2762 97.864L77.9163 97.84C78.0363 99.88 79.8123 101.68 81.9963 101.68C83.2203 101.68 84.1083 101.2 84.7563 100.72C85.1163 100.432 85.4523 100.12 85.7163 99.76ZM77.9163 96.4H85.7163C85.4523 94.36 83.9163 92.8 81.8763 92.8C79.8123 92.8 78.1803 94.48 77.9163 96.4ZM90.3888 103V91.48H92.0688V92.92C92.2848 92.608 92.5248 92.344 92.8368 92.08C93.3888 91.672 94.1568 91.24 95.3088 91.24C96.6768 91.24 97.6368 91.768 98.2128 92.272C98.5488 92.56 98.8128 92.896 99.0288 93.28C99.2448 92.896 99.5568 92.56 99.9168 92.272C100.565 91.768 101.549 91.24 102.989 91.24C105.509 91.24 107.429 92.944 107.429 96.16V103H105.749V96.16C105.749 93.952 104.573 92.8 102.869 92.8C101.213 92.8 99.7488 94.24 99.7488 96.64V103H98.0688V96.16C98.0688 93.976 96.8928 92.8 95.1888 92.8C93.5328 92.8 92.0688 94.24 92.0688 96.64V103H90.3888ZM116.071 87.64C116.071 87.04 116.551 86.56 117.151 86.56C117.751 86.56 118.231 87.04 118.231 87.64C118.231 88.24 117.751 88.72 117.151 88.72C116.551 88.72 116.071 88.24 116.071 87.64ZM116.311 103V91.48H117.991V103H116.311ZM121.842 108.04V91.48H123.522V93.16C123.786 92.8 124.098 92.488 124.506 92.2C125.154 91.72 126.138 91.24 127.482 91.24C130.602 91.24 133.122 93.76 133.122 97.24C133.122 100.72 130.602 103.24 127.482 103.24C126.138 103.24 125.154 102.76 124.506 102.28C124.098 101.992 123.786 101.68 123.522 101.32V108.04H121.842ZM127.482 101.68C129.666 101.68 131.442 99.856 131.442 97.24C131.442 94.624 129.666 92.8 127.482 92.8C125.466 92.8 123.522 94.72 123.522 97.24C123.522 99.76 125.466 101.68 127.482 101.68ZM135.035 101.2L136.235 100C136.451 100.312 136.715 100.6 137.003 100.84C137.507 101.296 138.275 101.68 139.235 101.68C140.939 101.68 141.755 100.84 141.755 99.76C141.755 97.12 135.515 98.44 135.515 94.48C135.515 92.824 137.051 91.24 139.355 91.24C140.579 91.24 141.467 91.648 142.115 92.032C142.475 92.248 142.811 92.512 143.075 92.8L141.875 94C141.707 93.784 141.491 93.568 141.251 93.4C140.795 93.112 140.195 92.8 139.355 92.8C138.035 92.8 137.195 93.64 137.195 94.48C137.195 97 143.435 95.68 143.435 99.76C143.435 101.68 141.851 103.24 139.235 103.24C137.795 103.24 136.739 102.736 136.043 102.232C135.635 101.944 135.299 101.608 135.035 101.2ZM146.428 98.2V91.48H148.108V98.2C148.108 100.24 149.548 101.68 151.348 101.68C153.268 101.68 154.828 100.144 154.828 97.84V91.48H156.508V103H154.828V101.44C154.588 101.776 154.276 102.088 153.916 102.352C153.268 102.808 152.356 103.24 151.108 103.24C148.468 103.24 146.428 101.2 146.428 98.2ZM160.467 103V91.48H162.147V92.92C162.363 92.608 162.603 92.344 162.915 92.08C163.467 91.672 164.235 91.24 165.387 91.24C166.755 91.24 167.715 91.768 168.291 92.272C168.627 92.56 168.891 92.896 169.107 93.28C169.323 92.896 169.635 92.56 169.995 92.272C170.643 91.768 171.627 91.24 173.067 91.24C175.587 91.24 177.507 92.944 177.507 96.16V103H175.827V96.16C175.827 93.952 174.651 92.8 172.947 92.8C171.291 92.8 169.827 94.24 169.827 96.64V103H168.147V96.16C168.147 93.976 166.971 92.8 165.267 92.8C163.611 92.8 162.147 94.24 162.147 96.64V103H160.467ZM195.149 103V101.32C194.885 101.68 194.549 101.992 194.165 102.28C193.493 102.76 192.533 103.24 191.189 103.24C188.069 103.24 185.549 100.72 185.549 97.24C185.549 93.76 188.069 91.24 191.189 91.24C192.533 91.24 193.493 91.72 194.165 92.2C194.549 92.488 194.885 92.8 195.149 93.16V86.2H196.829V103H195.149ZM191.189 101.68C193.205 101.68 195.149 99.76 195.149 97.24C195.149 94.72 193.205 92.8 191.189 92.8C189.005 92.8 187.229 94.624 187.229 97.24C187.229 99.856 189.005 101.68 191.189 101.68ZM205.819 103.24C202.579 103.24 199.939 100.6 199.939 97.24C199.939 93.88 202.579 91.24 205.819 91.24C209.059 91.24 211.699 93.88 211.699 97.24C211.699 100.6 209.059 103.24 205.819 103.24ZM205.819 101.68C208.099 101.68 210.019 99.76 210.019 97.24C210.019 94.72 208.099 92.8 205.819 92.8C203.539 92.8 201.619 94.72 201.619 97.24C201.619 99.736 203.539 101.68 205.819 101.68ZM214.821 103V86.2H216.501V103H214.821ZM225.507 103.24C222.267 103.24 219.627 100.6 219.627 97.24C219.627 93.88 222.267 91.24 225.507 91.24C228.747 91.24 231.387 93.88 231.387 97.24C231.387 100.6 228.747 103.24 225.507 103.24ZM225.507 101.68C227.787 101.68 229.707 99.76 229.707 97.24C229.707 94.72 227.787 92.8 225.507 92.8C223.227 92.8 221.307 94.72 221.307 97.24C221.307 99.736 223.227 101.68 225.507 101.68ZM234.389 103V91.48H236.069V93.04C236.333 92.728 236.645 92.416 237.005 92.152C237.653 91.696 238.565 91.24 239.909 91.24H240.389V92.92H239.669C237.749 92.92 236.069 94.36 236.069 96.64V103H234.389ZM246.153 101.2L247.353 100C247.569 100.312 247.833 100.6 248.121 100.84C248.625 101.296 249.393 101.68 250.353 101.68C252.057 101.68 252.873 100.84 252.873 99.76C252.873 97.12 246.633 98.44 246.633 94.48C246.633 92.824 248.169 91.24 250.473 91.24C251.697 91.24 252.585 91.648 253.233 92.032C253.593 92.248 253.929 92.512 254.193 92.8L252.993 94C252.825 93.784 252.609 93.568 252.368 93.4C251.913 93.112 251.312 92.8 250.473 92.8C249.153 92.8 248.312 93.64 248.312 94.48C248.312 97 254.553 95.68 254.553 99.76C254.553 101.68 252.969 103.24 250.353 103.24C248.913 103.24 247.857 102.736 247.161 102.232C246.753 101.944 246.417 101.608 246.153 101.2ZM257.305 87.64C257.305 87.04 257.785 86.56 258.385 86.56C258.985 86.56 259.465 87.04 259.465 87.64C259.465 88.24 258.985 88.72 258.385 88.72C257.785 88.72 257.305 88.24 257.305 87.64ZM257.545 103V91.48H259.225V103H257.545ZM264.036 99.88V93.04H261.876V91.48H263.196C263.844 91.48 264.156 91.072 264.156 90.28V87.64H265.716V91.48H268.236V93.04H265.716V99.88C265.716 101.104 266.316 101.68 267.276 101.68C267.684 101.68 268.092 101.608 268.38 101.512C268.548 101.44 268.716 101.392 268.836 101.32V102.88C268.692 102.952 268.524 103 268.356 103.072C268.068 103.168 267.66 103.24 267.204 103.24C265.212 103.24 264.036 102.064 264.036 99.88ZM283.724 103V101.44C283.484 101.776 283.172 102.088 282.812 102.352C282.164 102.808 281.252 103.24 280.004 103.24C277.604 103.24 275.924 101.56 275.924 99.88C275.924 97.96 277.1 96.76 279.284 96.4L283.724 95.68C283.724 93.976 282.548 92.8 280.844 92.8C279.812 92.8 279.02 93.232 278.468 93.64C278.156 93.904 277.868 94.168 277.604 94.48L276.524 93.4C276.836 92.992 277.22 92.632 277.652 92.32C278.396 91.768 279.428 91.24 280.844 91.24C283.484 91.24 285.404 93.16 285.404 95.68V103H283.724ZM283.724 97.84V97.12L279.764 97.84C278.324 98.104 277.604 98.8 277.604 99.88C277.604 100.84 278.444 101.68 280.004 101.68C282.188 101.68 283.724 100.144 283.724 97.84ZM289.233 103V91.48H290.913V92.92C291.129 92.608 291.369 92.344 291.681 92.08C292.233 91.672 293.001 91.24 294.153 91.24C295.521 91.24 296.481 91.768 297.057 92.272C297.393 92.56 297.657 92.896 297.873 93.28C298.089 92.896 298.401 92.56 298.761 92.272C299.409 91.768 300.393 91.24 301.833 91.24C304.353 91.24 306.273 92.944 306.273 96.16V103H304.593V96.16C304.593 93.952 303.417 92.8 301.713 92.8C300.057 92.8 298.593 94.24 298.593 96.64V103H296.913V96.16C296.913 93.976 295.737 92.8 294.033 92.8C292.377 92.8 290.913 94.24 290.913 96.64V103H289.233ZM318.755 99.76L319.835 100.84C319.499 101.296 319.091 101.68 318.611 102.04C317.771 102.64 316.595 103.24 315.035 103.24C311.891 103.24 309.275 100.6 309.275 97.24C309.275 93.88 311.915 91.24 314.915 91.24C318.059 91.24 320.435 93.64 320.435 97C320.435 97.264 320.387 97.456 320.363 97.624L320.315 97.864L310.955 97.84C311.075 99.88 312.851 101.68 315.035 101.68C316.259 101.68 317.147 101.2 317.795 100.72C318.155 100.432 318.491 100.12 318.755 99.76ZM310.955 96.4H318.755C318.491 94.36 316.955 92.8 314.915 92.8C312.851 92.8 311.219 94.48 310.955 96.4ZM324.388 99.88V93.04H322.228V91.48H323.548C324.196 91.48 324.508 91.072 324.508 90.28V87.64H326.068V91.48H328.588V93.04H326.068V99.88C326.068 101.104 326.668 101.68 327.628 101.68C328.036 101.68 328.444 101.608 328.732 101.512C328.9 101.44 329.068 101.392 329.188 101.32V102.88C329.044 102.952 328.876 103 328.708 103.072C328.42 103.168 328.012 103.24 327.556 103.24C325.564 103.24 324.388 102.064 324.388 99.88ZM345.635 99.76L346.835 100.84C346.475 101.296 346.043 101.68 345.563 102.04C344.723 102.64 343.547 103.24 342.035 103.24C338.891 103.24 336.275 100.6 336.275 97.24C336.275 93.88 338.891 91.24 342.035 91.24C343.547 91.24 344.699 91.816 345.491 92.392C345.947 92.728 346.355 93.112 346.715 93.52L345.515 94.72C345.251 94.36 344.963 94.048 344.627 93.76C344.051 93.28 343.163 92.8 342.035 92.8C339.875 92.8 337.955 94.72 337.955 97.24C337.955 99.76 339.875 101.68 342.035 101.68C343.163 101.68 344.051 101.2 344.699 100.72C345.059 100.432 345.371 100.12 345.635 99.76ZM354.273 103.24C351.033 103.24 348.393 100.6 348.393 97.24C348.393 93.88 351.033 91.24 354.273 91.24C357.513 91.24 360.153 93.88 360.153 97.24C360.153 100.6 357.513 103.24 354.273 103.24ZM354.273 101.68C356.553 101.68 358.473 99.76 358.473 97.24C358.473 94.72 356.553 92.8 354.273 92.8C351.993 92.8 350.073 94.72 350.073 97.24C350.073 99.736 351.993 101.68 354.273 101.68ZM363.154 103V91.48H364.834V93.16C365.074 92.8 365.386 92.488 365.746 92.2C366.394 91.72 367.282 91.24 368.554 91.24C371.314 91.24 373.234 93.16 373.234 96.16V103H371.554V96.16C371.554 94.12 370.258 92.8 368.434 92.8C366.394 92.8 364.834 94.336 364.834 96.64V103H363.154ZM375.996 101.2L377.196 100C377.412 100.312 377.676 100.6 377.964 100.84C378.468 101.296 379.236 101.68 380.196 101.68C381.9 101.68 382.716 100.84 382.716 99.76C382.716 97.12 376.476 98.44 376.476 94.48C376.476 92.824 378.012 91.24 380.316 91.24C381.54 91.24 382.428 91.648 383.076 92.032C383.436 92.248 383.772 92.512 384.036 92.8L382.836 94C382.668 93.784 382.452 93.568 382.212 93.4C381.756 93.112 381.156 92.8 380.316 92.8C378.996 92.8 378.156 93.64 378.156 94.48C378.156 97 384.396 95.68 384.396 99.76C384.396 101.68 382.812 103.24 380.196 103.24C378.756 103.24 377.7 102.736 377.004 102.232C376.596 101.944 376.26 101.608 375.996 101.2ZM396.029 99.76L397.109 100.84C396.773 101.296 396.365 101.68 395.885 102.04C395.045 102.64 393.869 103.24 392.309 103.24C389.165 103.24 386.549 100.6 386.549 97.24C386.549 93.88 389.189 91.24 392.189 91.24C395.333 91.24 397.709 93.64 397.709 97C397.709 97.264 397.661 97.456 397.637 97.624L397.589 97.864L388.229 97.84C388.349 99.88 390.125 101.68 392.309 101.68C393.533 101.68 394.421 101.2 395.069 100.72C395.429 100.432 395.765 100.12 396.029 99.76ZM388.229 96.4H396.029C395.765 94.36 394.229 92.8 392.189 92.8C390.125 92.8 388.493 94.48 388.229 96.4ZM409.221 99.76L410.421 100.84C410.061 101.296 409.629 101.68 409.149 102.04C408.309 102.64 407.133 103.24 405.621 103.24C402.477 103.24 399.861 100.6 399.861 97.24C399.861 93.88 402.477 91.24 405.621 91.24C407.133 91.24 408.285 91.816 409.077 92.392C409.533 92.728 409.941 93.112 410.301 93.52L409.101 94.72C408.837 94.36 408.549 94.048 408.213 93.76C407.637 93.28 406.749 92.8 405.621 92.8C403.461 92.8 401.541 94.72 401.541 97.24C401.541 99.76 403.461 101.68 405.621 101.68C406.749 101.68 407.637 101.2 408.285 100.72C408.645 100.432 408.957 100.12 409.221 99.76ZM414.013 99.88V93.04H411.853V91.48H413.173C413.821 91.48 414.133 91.072 414.133 90.28V87.64H415.693V91.48H418.213V93.04H415.693V99.88C415.693 101.104 416.293 101.68 417.253 101.68C417.661 101.68 418.069 101.608 418.357 101.512C418.525 101.44 418.693 101.392 418.813 101.32V102.88C418.669 102.952 418.501 103 418.333 103.072C418.045 103.168 417.637 103.24 417.181 103.24C415.189 103.24 414.013 102.064 414.013 99.88ZM430.107 99.76L431.187 100.84C430.851 101.296 430.443 101.68 429.963 102.04C429.123 102.64 427.947 103.24 426.387 103.24C423.243 103.24 420.627 100.6 420.627 97.24C420.627 93.88 423.267 91.24 426.267 91.24C429.411 91.24 431.787 93.64 431.787 97C431.787 97.264 431.739 97.456 431.715 97.624L431.667 97.864L422.307 97.84C422.427 99.88 424.203 101.68 426.387 101.68C427.611 101.68 428.499 101.2 429.147 100.72C429.507 100.432 429.843 100.12 430.107 99.76ZM422.307 96.4H430.107C429.843 94.36 428.307 92.8 426.267 92.8C424.203 92.8 422.571 94.48 422.307 96.4ZM435.739 99.88V93.04H433.579V91.48H434.899C435.547 91.48 435.859 91.072 435.859 90.28V87.64H437.419V91.48H439.939V93.04H437.419V99.88C437.419 101.104 438.019 101.68 438.979 101.68C439.387 101.68 439.795 101.608 440.083 101.512C440.251 101.44 440.419 101.392 440.539 101.32V102.88C440.395 102.952 440.227 103 440.059 103.072C439.771 103.168 439.363 103.24 438.907 103.24C436.915 103.24 435.739 102.064 435.739 99.88ZM443.193 98.2V91.48H444.873V98.2C444.873 100.24 446.313 101.68 448.113 101.68C450.033 101.68 451.593 100.144 451.593 97.84V91.48H453.273V103H451.593V101.44C451.353 101.776 451.041 102.088 450.681 102.352C450.033 102.808 449.121 103.24 447.873 103.24C445.233 103.24 443.193 101.2 443.193 98.2ZM457.233 103V91.48H458.913V93.04C459.177 92.728 459.489 92.416 459.849 92.152C460.497 91.696 461.409 91.24 462.753 91.24H463.233V92.92H462.513C460.593 92.92 458.913 94.36 458.913 96.64V103H457.233ZM463.945 102.04C463.945 101.296 464.401 100.84 465.145 100.84C465.889 100.84 466.345 101.296 466.345 102.04C466.345 102.784 465.889 103.24 465.145 103.24C464.401 103.24 463.945 102.784 463.945 102.04ZM472.457 103L479.417 86.2H481.097L488.057 103H486.137L484.217 98.32H476.297L474.377 103H472.457ZM477.017 96.64H483.497L480.257 88.72L477.017 96.64ZM493.699 101.2L494.899 100C495.115 100.312 495.379 100.6 495.667 100.84C496.171 101.296 496.939 101.68 497.899 101.68C499.603 101.68 500.419 100.84 500.419 99.76C500.419 97.12 494.179 98.44 494.179 94.48C494.179 92.824 495.715 91.24 498.019 91.24C499.243 91.24 500.131 91.648 500.779 92.032C501.139 92.248 501.475 92.512 501.739 92.8L500.539 94C500.371 93.784 500.155 93.568 499.915 93.4C499.459 93.112 498.859 92.8 498.019 92.8C496.699 92.8 495.859 93.64 495.859 94.48C495.859 97 502.099 95.68 502.099 99.76C502.099 101.68 500.515 103.24 497.899 103.24C496.459 103.24 495.403 102.736 494.707 102.232C494.299 101.944 493.963 101.608 493.699 101.2ZM513.612 99.76L514.812 100.84C514.452 101.296 514.02 101.68 513.54 102.04C512.7 102.64 511.524 103.24 510.012 103.24C506.868 103.24 504.252 100.6 504.252 97.24C504.252 93.88 506.868 91.24 510.012 91.24C511.524 91.24 512.676 91.816 513.468 92.392C513.924 92.728 514.332 93.112 514.692 93.52L513.492 94.72C513.228 94.36 512.94 94.048 512.604 93.76C512.028 93.28 511.14 92.8 510.012 92.8C507.852 92.8 505.932 94.72 505.932 97.24C505.932 99.76 507.852 101.68 510.012 101.68C511.14 101.68 512.028 101.2 512.676 100.72C513.036 100.432 513.348 100.12 513.612 99.76ZM525.849 99.76L526.929 100.84C526.593 101.296 526.185 101.68 525.705 102.04C524.865 102.64 523.689 103.24 522.129 103.24C518.985 103.24 516.369 100.6 516.369 97.24C516.369 93.88 519.009 91.24 522.009 91.24C525.153 91.24 527.529 93.64 527.529 97C527.529 97.264 527.481 97.456 527.457 97.624L527.409 97.864L518.049 97.84C518.169 99.88 519.945 101.68 522.129 101.68C523.353 101.68 524.241 101.2 524.889 100.72C525.249 100.432 525.585 100.12 525.849 99.76ZM518.049 96.4H525.849C525.585 94.36 524.049 92.8 522.009 92.8C519.945 92.8 518.313 94.48 518.049 96.4ZM530.642 103V86.2H532.322V103H530.642ZM544.927 99.76L546.007 100.84C545.671 101.296 545.263 101.68 544.783 102.04C543.943 102.64 542.767 103.24 541.207 103.24C538.063 103.24 535.447 100.6 535.447 97.24C535.447 93.88 538.087 91.24 541.087 91.24C544.231 91.24 546.607 93.64 546.607 97C546.607 97.264 546.559 97.456 546.535 97.624L546.487 97.864L537.127 97.84C537.247 99.88 539.023 101.68 541.207 101.68C542.431 101.68 543.319 101.2 543.967 100.72C544.327 100.432 544.663 100.12 544.927 99.76ZM537.127 96.4H544.927C544.663 94.36 543.127 92.8 541.087 92.8C539.023 92.8 537.391 94.48 537.127 96.4ZM549.6 103V91.48H551.28V93.04C551.544 92.728 551.856 92.416 552.216 92.152C552.864 91.696 553.776 91.24 555.12 91.24H555.6V92.92H554.88C552.96 92.92 551.28 94.36 551.28 96.64V103H549.6ZM557.633 87.64C557.633 87.04 558.113 86.56 558.713 86.56C559.313 86.56 559.793 87.04 559.793 87.64C559.793 88.24 559.313 88.72 558.713 88.72C558.113 88.72 557.633 88.24 557.633 87.64ZM557.873 103V91.48H559.553V103H557.873ZM562.324 101.2L563.524 100C563.74 100.312 564.004 100.6 564.292 100.84C564.796 101.296 565.564 101.68 566.524 101.68C568.228 101.68 569.044 100.84 569.044 99.76C569.044 97.12 562.804 98.44 562.804 94.48C562.804 92.824 564.34 91.24 566.644 91.24C567.868 91.24 568.756 91.648 569.404 92.032C569.764 92.248 570.1 92.512 570.364 92.8L569.164 94C568.996 93.784 568.78 93.568 568.54 93.4C568.084 93.112 567.484 92.8 566.644 92.8C565.324 92.8 564.484 93.64 564.484 94.48C564.484 97 570.724 95.68 570.724 99.76C570.724 101.68 569.14 103.24 566.524 103.24C565.084 103.24 564.028 102.736 563.332 102.232C562.924 101.944 562.588 101.608 562.324 101.2ZM582.477 108.04V101.32C582.213 101.68 581.877 101.992 581.493 102.28C580.821 102.76 579.861 103.24 578.517 103.24C575.397 103.24 572.877 100.72 572.877 97.24C572.877 93.76 575.397 91.24 578.517 91.24C579.861 91.24 580.821 91.72 581.493 92.2C581.877 92.488 582.213 92.8 582.477 93.16V91.48H584.157V108.04H582.477ZM578.517 101.68C580.533 101.68 582.477 99.76 582.477 97.24C582.477 94.72 580.533 92.8 578.517 92.8C576.333 92.8 574.557 94.624 574.557 97.24C574.557 99.856 576.333 101.68 578.517 101.68ZM587.99 98.2V91.48H589.67V98.2C589.67 100.24 591.11 101.68 592.91 101.68C594.83 101.68 596.39 100.144 596.39 97.84V91.48H598.07V103H596.39V101.44C596.15 101.776 595.838 102.088 595.478 102.352C594.83 102.808 593.918 103.24 592.67 103.24C590.03 103.24 587.99 101.2 587.99 98.2ZM610.669 99.76L611.749 100.84C611.413 101.296 611.005 101.68 610.525 102.04C609.685 102.64 608.509 103.24 606.949 103.24C603.805 103.24 601.189 100.6 601.189 97.24C601.189 93.88 603.829 91.24 606.829 91.24C609.973 91.24 612.349 93.64 612.349 97C612.349 97.264 612.301 97.456 612.277 97.624L612.229 97.864L602.869 97.84C602.989 99.88 604.765 101.68 606.949 101.68C608.173 101.68 609.061 101.2 609.709 100.72C610.069 100.432 610.405 100.12 610.669 99.76ZM602.869 96.4H610.669C610.405 94.36 608.869 92.8 606.829 92.8C604.765 92.8 603.133 94.48 602.869 96.4ZM46.96 132.24C43.72 132.24 41.08 129.6 41.08 126.24C41.08 122.88 43.72 120.24 46.96 120.24C50.2 120.24 52.84 122.88 52.84 126.24C52.84 129.6 50.2 132.24 46.96 132.24ZM46.96 130.68C49.24 130.68 51.16 128.76 51.16 126.24C51.16 123.72 49.24 121.8 46.96 121.8C44.68 121.8 42.76 123.72 42.76 126.24C42.76 128.736 44.68 130.68 46.96 130.68ZM55.8419 132V120.48H57.5219V122.04C57.7859 121.728 58.0979 121.416 58.4579 121.152C59.1059 120.696 60.0179 120.24 61.3619 120.24H61.8419V121.92H61.1219C59.2019 121.92 57.5219 123.36 57.5219 125.64V132H55.8419ZM64.1153 132V120.48H65.7953V122.16C66.0353 121.8 66.3473 121.488 66.7073 121.2C67.3553 120.72 68.2433 120.24 69.5153 120.24C72.2753 120.24 74.1953 122.16 74.1953 125.16V132H72.5153V125.16C72.5153 123.12 71.2193 121.8 69.3953 121.8C67.3553 121.8 65.7953 123.336 65.7953 125.64V132H64.1153ZM84.9972 132V130.44C84.7572 130.776 84.4452 131.088 84.0852 131.352C83.4372 131.808 82.5252 132.24 81.2772 132.24C78.8772 132.24 77.1972 130.56 77.1972 128.88C77.1972 126.96 78.3732 125.76 80.5572 125.4L84.9972 124.68C84.9972 122.976 83.8212 121.8 82.1172 121.8C81.0852 121.8 80.2932 122.232 79.7412 122.64C79.4292 122.904 79.1412 123.168 78.8772 123.48L77.7972 122.4C78.1092 121.992 78.4932 121.632 78.9252 121.32C79.6692 120.768 80.7012 120.24 82.1172 120.24C84.7572 120.24 86.6772 122.16 86.6772 124.68V132H84.9972ZM84.9972 126.84V126.12L81.0372 126.84C79.5972 127.104 78.8772 127.8 78.8772 128.88C78.8772 129.84 79.7172 130.68 81.2772 130.68C83.4612 130.68 84.9972 129.144 84.9972 126.84ZM90.5059 132V120.48H92.1859V122.04C92.4499 121.728 92.7619 121.416 93.1219 121.152C93.7699 120.696 94.6819 120.24 96.0259 120.24H96.5059V121.92H95.7859C93.8659 121.92 92.1859 123.36 92.1859 125.64V132H90.5059ZM107.185 128.76L108.265 129.84C107.929 130.296 107.521 130.68 107.041 131.04C106.201 131.64 105.025 132.24 103.465 132.24C100.321 132.24 97.705 129.6 97.705 126.24C97.705 122.88 100.345 120.24 103.345 120.24C106.489 120.24 108.865 122.64 108.865 126C108.865 126.264 108.817 126.456 108.793 126.624L108.745 126.864L99.385 126.84C99.505 128.88 101.281 130.68 103.465 130.68C104.689 130.68 105.577 130.2 106.225 129.72C106.585 129.432 106.921 129.12 107.185 128.76ZM99.385 125.4H107.185C106.921 123.36 105.385 121.8 103.345 121.8C101.281 121.8 99.649 123.48 99.385 125.4ZM116.897 127.2V120.48H118.577V127.2C118.577 129.24 120.017 130.68 121.817 130.68C123.737 130.68 125.297 129.144 125.297 126.84V120.48H126.977V132H125.297V130.44C125.057 130.776 124.745 131.088 124.385 131.352C123.737 131.808 122.825 132.24 121.577 132.24C118.937 132.24 116.897 130.2 116.897 127.2ZM131.056 132V115.2H132.736V132H131.056ZM137.661 128.88V122.04H135.501V120.48H136.821C137.469 120.48 137.781 120.072 137.781 119.28V116.64H139.341V120.48H141.861V122.04H139.341V128.88C139.341 130.104 139.941 130.68 140.901 130.68C141.309 130.68 141.717 130.608 142.005 130.512C142.173 130.44 142.341 130.392 142.461 130.32V131.88C142.317 131.952 142.149 132 141.981 132.072C141.693 132.168 141.285 132.24 140.829 132.24C138.837 132.24 137.661 131.064 137.661 128.88ZM145.35 132V120.48H147.03V122.04C147.294 121.728 147.606 121.416 147.966 121.152C148.614 120.696 149.526 120.24 150.87 120.24H151.35V121.92H150.63C148.71 121.92 147.03 123.36 147.03 125.64V132H145.35ZM153.383 116.64C153.383 116.04 153.863 115.56 154.463 115.56C155.063 115.56 155.543 116.04 155.543 116.64C155.543 117.24 155.063 117.72 154.463 117.72C153.863 117.72 153.383 117.24 153.383 116.64ZM153.623 132V120.48H155.303V132H153.623ZM167.674 128.76L168.874 129.84C168.514 130.296 168.082 130.68 167.602 131.04C166.762 131.64 165.586 132.24 164.074 132.24C160.93 132.24 158.314 129.6 158.314 126.24C158.314 122.88 160.93 120.24 164.074 120.24C165.586 120.24 166.738 120.816 167.53 121.392C167.986 121.728 168.394 122.112 168.754 122.52L167.554 123.72C167.29 123.36 167.002 123.048 166.666 122.76C166.09 122.28 165.202 121.8 164.074 121.8C161.914 121.8 159.994 123.72 159.994 126.24C159.994 128.76 161.914 130.68 164.074 130.68C165.202 130.68 166.09 130.2 166.738 129.72C167.098 129.432 167.41 129.12 167.674 128.76ZM179.912 128.76L180.992 129.84C180.656 130.296 180.248 130.68 179.768 131.04C178.928 131.64 177.752 132.24 176.192 132.24C173.048 132.24 170.432 129.6 170.432 126.24C170.432 122.88 173.072 120.24 176.072 120.24C179.216 120.24 181.592 122.64 181.592 126C181.592 126.264 181.544 126.456 181.52 126.624L181.472 126.864L172.112 126.84C172.232 128.88 174.008 130.68 176.192 130.68C177.416 130.68 178.304 130.2 178.952 129.72C179.312 129.432 179.648 129.12 179.912 128.76ZM172.112 125.4H179.912C179.648 123.36 178.112 121.8 176.072 121.8C174.008 121.8 172.376 123.48 172.112 125.4ZM183.504 130.2L184.704 129C184.92 129.312 185.184 129.6 185.472 129.84C185.976 130.296 186.744 130.68 187.704 130.68C189.408 130.68 190.224 129.84 190.224 128.76C190.224 126.12 183.984 127.44 183.984 123.48C183.984 121.824 185.52 120.24 187.824 120.24C189.048 120.24 189.936 120.648 190.584 121.032C190.944 121.248 191.28 121.512 191.544 121.8L190.344 123C190.176 122.784 189.96 122.568 189.72 122.4C189.264 122.112 188.664 121.8 187.824 121.8C186.504 121.8 185.664 122.64 185.664 123.48C185.664 126 191.904 124.68 191.904 128.76C191.904 130.68 190.32 132.24 187.704 132.24C186.264 132.24 185.208 131.736 184.512 131.232C184.104 130.944 183.768 130.608 183.504 130.2ZM200.536 132V122.04H198.736V120.48H200.536V118.32C200.536 116.136 201.736 114.96 203.656 114.96C204.136 114.96 204.544 115.056 204.856 115.152C205.024 115.224 205.192 115.272 205.336 115.32V116.88L204.88 116.712C204.592 116.616 204.184 116.52 203.776 116.52C202.816 116.52 202.216 117.096 202.216 118.32V120.48H204.976V122.04H202.216V132H200.536ZM214.583 132V130.44C214.343 130.776 214.031 131.088 213.671 131.352C213.023 131.808 212.111 132.24 210.863 132.24C208.463 132.24 206.783 130.56 206.783 128.88C206.783 126.96 207.959 125.76 210.143 125.4L214.583 124.68C214.583 122.976 213.407 121.8 211.703 121.8C210.671 121.8 209.879 122.232 209.327 122.64C209.015 122.904 208.727 123.168 208.463 123.48L207.383 122.4C207.695 121.992 208.079 121.632 208.511 121.32C209.255 120.768 210.287 120.24 211.703 120.24C214.343 120.24 216.263 122.16 216.263 124.68V132H214.583ZM214.583 126.84V126.12L210.623 126.84C209.183 127.104 208.463 127.8 208.463 128.88C208.463 129.84 209.303 130.68 210.863 130.68C213.047 130.68 214.583 129.144 214.583 126.84ZM228.612 128.76L229.812 129.84C229.452 130.296 229.02 130.68 228.54 131.04C227.7 131.64 226.524 132.24 225.012 132.24C221.868 132.24 219.252 129.6 219.252 126.24C219.252 122.88 221.868 120.24 225.012 120.24C226.524 120.24 227.676 120.816 228.468 121.392C228.924 121.728 229.332 122.112 229.692 122.52L228.492 123.72C228.228 123.36 227.94 123.048 227.604 122.76C227.028 122.28 226.14 121.8 225.012 121.8C222.852 121.8 220.932 123.72 220.932 126.24C220.932 128.76 222.852 130.68 225.012 130.68C226.14 130.68 227.028 130.2 227.676 129.72C228.036 129.432 228.348 129.12 228.612 128.76ZM232.203 116.64C232.203 116.04 232.683 115.56 233.283 115.56C233.883 115.56 234.363 116.04 234.363 116.64C234.363 117.24 233.883 117.72 233.283 117.72C232.683 117.72 232.203 117.24 232.203 116.64ZM232.443 132V120.48H234.123V132H232.443ZM238.095 132V115.2H239.775V132H238.095ZM243.5 116.64C243.5 116.04 243.98 115.56 244.58 115.56C245.18 115.56 245.66 116.04 245.66 116.64C245.66 117.24 245.18 117.72 244.58 117.72C243.98 117.72 243.5 117.24 243.5 116.64ZM243.74 132V120.48H245.42V132H243.74ZM248.192 130.2L249.392 129C249.608 129.312 249.872 129.6 250.16 129.84C250.664 130.296 251.432 130.68 252.392 130.68C254.096 130.68 254.912 129.84 254.912 128.76C254.912 126.12 248.672 127.44 248.672 123.48C248.672 121.824 250.208 120.24 252.512 120.24C253.736 120.24 254.624 120.648 255.272 121.032C255.632 121.248 255.968 121.512 256.232 121.8L255.032 123C254.864 122.784 254.648 122.568 254.408 122.4C253.952 122.112 253.352 121.8 252.512 121.8C251.192 121.8 250.352 122.64 250.352 123.48C250.352 126 256.592 124.68 256.592 128.76C256.592 130.68 255.008 132.24 252.392 132.24C250.952 132.24 249.896 131.736 249.2 131.232C248.792 130.944 248.456 130.608 248.192 130.2ZM259.344 116.64C259.344 116.04 259.824 115.56 260.424 115.56C261.024 115.56 261.504 116.04 261.504 116.64C261.504 117.24 261.024 117.72 260.424 117.72C259.824 117.72 259.344 117.24 259.344 116.64ZM259.584 132V120.48H261.264V132H259.584ZM264.035 130.2L265.235 129C265.451 129.312 265.715 129.6 266.003 129.84C266.507 130.296 267.275 130.68 268.235 130.68C269.939 130.68 270.755 129.84 270.755 128.76C270.755 126.12 264.515 127.44 264.515 123.48C264.515 121.824 266.051 120.24 268.355 120.24C269.579 120.24 270.467 120.648 271.115 121.032C271.475 121.248 271.811 121.512 272.075 121.8L270.875 123C270.707 122.784 270.491 122.568 270.251 122.4C269.795 122.112 269.195 121.8 268.355 121.8C267.035 121.8 266.195 122.64 266.195 123.48C266.195 126 272.435 124.68 272.435 128.76C272.435 130.68 270.851 132.24 268.235 132.24C266.795 132.24 265.739 131.736 265.043 131.232C264.635 130.944 264.299 130.608 264.035 130.2ZM280.467 132V120.48H282.147V122.04C282.411 121.728 282.723 121.416 283.083 121.152C283.731 120.696 284.643 120.24 285.987 120.24H286.467V121.92H285.747C283.827 121.92 282.147 123.36 282.147 125.64V132H280.467ZM288.5 116.64C288.5 116.04 288.98 115.56 289.58 115.56C290.18 115.56 290.66 116.04 290.66 116.64C290.66 117.24 290.18 117.72 289.58 117.72C288.98 117.72 288.5 117.24 288.5 116.64ZM288.74 132V120.48H290.42V132H288.74ZM293.192 130.2L294.392 129C294.608 129.312 294.872 129.6 295.16 129.84C295.664 130.296 296.432 130.68 297.392 130.68C299.096 130.68 299.912 129.84 299.912 128.76C299.912 126.12 293.672 127.44 293.672 123.48C293.672 121.824 295.208 120.24 297.512 120.24C298.736 120.24 299.624 120.648 300.272 121.032C300.632 121.248 300.968 121.512 301.232 121.8L300.032 123C299.864 122.784 299.648 122.568 299.408 122.4C298.952 122.112 298.352 121.8 297.512 121.8C296.192 121.8 295.352 122.64 295.352 123.48C295.352 126 301.592 124.68 301.592 128.76C301.592 130.68 300.008 132.24 297.392 132.24C295.952 132.24 294.896 131.736 294.2 131.232C293.792 130.944 293.456 130.608 293.192 130.2ZM304.584 127.2V120.48H306.264V127.2C306.264 129.24 307.704 130.68 309.504 130.68C311.424 130.68 312.984 129.144 312.984 126.84V120.48H314.664V132H312.984V130.44C312.744 130.776 312.432 131.088 312.072 131.352C311.424 131.808 310.512 132.24 309.264 132.24C306.624 132.24 304.584 130.2 304.584 127.2ZM317.543 130.2L318.743 129C318.959 129.312 319.223 129.6 319.511 129.84C320.015 130.296 320.783 130.68 321.743 130.68C323.447 130.68 324.263 129.84 324.263 128.76C324.263 126.12 318.023 127.44 318.023 123.48C318.023 121.824 319.559 120.24 321.863 120.24C323.087 120.24 323.975 120.648 324.623 121.032C324.983 121.248 325.319 121.512 325.583 121.8L324.383 123C324.215 122.784 323.999 122.568 323.759 122.4C323.303 122.112 322.703 121.8 321.863 121.8C320.543 121.8 319.703 122.64 319.703 123.48C319.703 126 325.943 124.68 325.943 128.76C325.943 130.68 324.359 132.24 321.743 132.24C320.303 132.24 319.247 131.736 318.551 131.232C318.143 130.944 317.807 130.608 317.543 130.2ZM333.975 132V120.48H335.655V121.92C335.871 121.608 336.111 121.344 336.423 121.08C336.975 120.672 337.743 120.24 338.895 120.24C340.263 120.24 341.223 120.768 341.799 121.272C342.135 121.56 342.399 121.896 342.615 122.28C342.831 121.896 343.143 121.56 343.503 121.272C344.151 120.768 345.135 120.24 346.575 120.24C349.095 120.24 351.015 121.944 351.015 125.16V132H349.335V125.16C349.335 122.952 348.159 121.8 346.455 121.8C344.799 121.8 343.335 123.24 343.335 125.64V132H341.655V125.16C341.655 122.976 340.479 121.8 338.775 121.8C337.119 121.8 335.655 123.24 335.655 125.64V132H333.975ZM361.818 132V130.44C361.578 130.776 361.266 131.088 360.906 131.352C360.258 131.808 359.346 132.24 358.098 132.24C355.698 132.24 354.018 130.56 354.018 128.88C354.018 126.96 355.194 125.76 357.378 125.4L361.818 124.68C361.818 122.976 360.642 121.8 358.938 121.8C357.906 121.8 357.114 122.232 356.562 122.64C356.25 122.904 355.962 123.168 355.698 123.48L354.618 122.4C354.93 121.992 355.314 121.632 355.746 121.32C356.49 120.768 357.522 120.24 358.938 120.24C361.578 120.24 363.498 122.16 363.498 124.68V132H361.818ZM361.818 126.84V126.12L357.858 126.84C356.418 127.104 355.698 127.8 355.698 128.88C355.698 129.84 356.538 130.68 358.098 130.68C360.282 130.68 361.818 129.144 361.818 126.84ZM367.326 127.2V120.48H369.006V127.2C369.006 129.24 370.446 130.68 372.246 130.68C374.166 130.68 375.726 129.144 375.726 126.84V120.48H377.406V132H375.726V130.44C375.486 130.776 375.174 131.088 374.814 131.352C374.166 131.808 373.254 132.24 372.006 132.24C369.366 132.24 367.326 130.2 367.326 127.2ZM381.365 132V120.48H383.045V122.04C383.309 121.728 383.621 121.416 383.981 121.152C384.629 120.696 385.541 120.24 386.885 120.24H387.365V121.92H386.645C384.725 121.92 383.045 123.36 383.045 125.64V132H381.365ZM389.399 116.64C389.399 116.04 389.879 115.56 390.479 115.56C391.079 115.56 391.559 116.04 391.559 116.64C391.559 117.24 391.079 117.72 390.479 117.72C389.879 117.72 389.399 117.24 389.399 116.64ZM389.639 132V120.48H391.319V132H389.639ZM394.09 130.2L395.29 129C395.506 129.312 395.77 129.6 396.058 129.84C396.562 130.296 397.33 130.68 398.29 130.68C399.994 130.68 400.81 129.84 400.81 128.76C400.81 126.12 394.57 127.44 394.57 123.48C394.57 121.824 396.106 120.24 398.41 120.24C399.634 120.24 400.522 120.648 401.17 121.032C401.53 121.248 401.866 121.512 402.13 121.8L400.93 123C400.762 122.784 400.546 122.568 400.306 122.4C399.85 122.112 399.25 121.8 398.41 121.8C397.09 121.8 396.25 122.64 396.25 123.48C396.25 126 402.49 124.68 402.49 128.76C402.49 130.68 400.906 132.24 398.29 132.24C396.85 132.24 395.794 131.736 395.098 131.232C394.69 130.944 394.354 130.608 394.09 130.2ZM419.282 132V130.32C419.018 130.68 418.682 130.992 418.298 131.28C417.626 131.76 416.666 132.24 415.322 132.24C412.202 132.24 409.682 129.72 409.682 126.24C409.682 122.76 412.202 120.24 415.322 120.24C416.666 120.24 417.626 120.72 418.298 121.2C418.682 121.488 419.018 121.8 419.282 122.16V115.2H420.962V132H419.282ZM415.322 130.68C417.338 130.68 419.282 128.76 419.282 126.24C419.282 123.72 417.338 121.8 415.322 121.8C413.138 121.8 411.362 123.624 411.362 126.24C411.362 128.856 413.138 130.68 415.322 130.68ZM424.672 116.64C424.672 116.04 425.152 115.56 425.752 115.56C426.352 115.56 426.832 116.04 426.832 116.64C426.832 117.24 426.352 117.72 425.752 117.72C425.152 117.72 424.672 117.24 424.672 116.64ZM424.912 132V120.48H426.592V132H424.912ZM437.403 132V130.44C437.163 130.776 436.851 131.088 436.491 131.352C435.843 131.808 434.931 132.24 433.683 132.24C431.283 132.24 429.603 130.56 429.603 128.88C429.603 126.96 430.779 125.76 432.963 125.4L437.403 124.68C437.403 122.976 436.227 121.8 434.523 121.8C433.491 121.8 432.699 122.232 432.147 122.64C431.835 122.904 431.547 123.168 431.283 123.48L430.203 122.4C430.515 121.992 430.899 121.632 431.331 121.32C432.075 120.768 433.107 120.24 434.523 120.24C437.163 120.24 439.083 122.16 439.083 124.68V132H437.403ZM437.403 126.84V126.12L433.443 126.84C432.003 127.104 431.283 127.8 431.283 128.88C431.283 129.84 432.123 130.68 433.683 130.68C435.867 130.68 437.403 129.144 437.403 126.84ZM442.912 132V120.48H444.592V121.92C444.808 121.608 445.048 121.344 445.36 121.08C445.912 120.672 446.68 120.24 447.832 120.24C449.2 120.24 450.16 120.768 450.736 121.272C451.072 121.56 451.336 121.896 451.552 122.28C451.768 121.896 452.08 121.56 452.44 121.272C453.088 120.768 454.072 120.24 455.512 120.24C458.032 120.24 459.952 121.944 459.952 125.16V132H458.272V125.16C458.272 122.952 457.096 121.8 455.392 121.8C453.736 121.8 452.272 123.24 452.272 125.64V132H450.592V125.16C450.592 122.976 449.416 121.8 447.712 121.8C446.056 121.8 444.592 123.24 444.592 125.64V132H442.912ZM468.834 137.04V120.48H470.514V122.16C470.778 121.8 471.09 121.488 471.498 121.2C472.146 120.72 473.13 120.24 474.474 120.24C477.594 120.24 480.114 122.76 480.114 126.24C480.114 129.72 477.594 132.24 474.474 132.24C473.13 132.24 472.146 131.76 471.498 131.28C471.09 130.992 470.778 130.68 470.514 130.32V137.04H468.834ZM474.474 130.68C476.658 130.68 478.434 128.856 478.434 126.24C478.434 123.624 476.658 121.8 474.474 121.8C472.458 121.8 470.514 123.72 470.514 126.24C470.514 128.76 472.458 130.68 474.474 130.68ZM491.748 128.76L492.828 129.84C492.492 130.296 492.084 130.68 491.604 131.04C490.764 131.64 489.588 132.24 488.028 132.24C484.884 132.24 482.268 129.6 482.268 126.24C482.268 122.88 484.908 120.24 487.908 120.24C491.052 120.24 493.428 122.64 493.428 126C493.428 126.264 493.38 126.456 493.356 126.624L493.307 126.864L483.948 126.84C484.068 128.88 485.844 130.68 488.028 130.68C489.252 130.68 490.14 130.2 490.788 129.72C491.148 129.432 491.484 129.12 491.748 128.76ZM483.948 125.4H491.748C491.484 123.36 489.948 121.8 487.908 121.8C485.844 121.8 484.212 123.48 483.948 125.4ZM496.54 132V115.2H498.22V132H496.54ZM502.306 132V115.2H503.986V132H502.306ZM516.591 128.76L517.671 129.84C517.335 130.296 516.927 130.68 516.447 131.04C515.607 131.64 514.431 132.24 512.871 132.24C509.727 132.24 507.111 129.6 507.111 126.24C507.111 122.88 509.751 120.24 512.751 120.24C515.895 120.24 518.271 122.64 518.271 126C518.271 126.264 518.223 126.456 518.199 126.624L518.151 126.864L508.791 126.84C508.911 128.88 510.687 130.68 512.871 130.68C514.095 130.68 514.983 130.2 515.631 129.72C515.991 129.432 516.327 129.12 516.591 128.76ZM508.791 125.4H516.591C516.327 123.36 514.791 121.8 512.751 121.8C510.687 121.8 509.055 123.48 508.791 125.4ZM521.264 132V120.48H522.944V122.16C523.184 121.8 523.496 121.488 523.856 121.2C524.504 120.72 525.392 120.24 526.664 120.24C529.424 120.24 531.344 122.16 531.344 125.16V132H529.664V125.16C529.664 123.12 528.368 121.8 526.544 121.8C524.504 121.8 522.944 123.336 522.944 125.64V132H521.264ZM535.911 128.88V122.04H533.751V120.48H535.071C535.719 120.48 536.031 120.072 536.031 119.28V116.64H537.591V120.48H540.111V122.04H537.591V128.88C537.591 130.104 538.191 130.68 539.151 130.68C539.559 130.68 539.967 130.608 540.255 130.512C540.423 130.44 540.591 130.392 540.711 130.32V131.88C540.567 131.952 540.399 132 540.231 132.072C539.943 132.168 539.535 132.24 539.079 132.24C537.087 132.24 535.911 131.064 535.911 128.88ZM552.005 128.76L553.085 129.84C552.749 130.296 552.341 130.68 551.861 131.04C551.021 131.64 549.845 132.24 548.285 132.24C545.141 132.24 542.525 129.6 542.525 126.24C542.525 122.88 545.165 120.24 548.165 120.24C551.309 120.24 553.685 122.64 553.685 126C553.685 126.264 553.637 126.456 553.613 126.624L553.565 126.864L544.205 126.84C544.325 128.88 546.101 130.68 548.285 130.68C549.509 130.68 550.397 130.2 551.045 129.72C551.405 129.432 551.741 129.12 552.005 128.76ZM544.205 125.4H552.005C551.741 123.36 550.205 121.8 548.165 121.8C546.101 121.8 544.469 123.48 544.205 125.4ZM555.598 130.2L556.798 129C557.014 129.312 557.278 129.6 557.566 129.84C558.07 130.296 558.838 130.68 559.798 130.68C561.502 130.68 562.318 129.84 562.318 128.76C562.318 126.12 556.078 127.44 556.078 123.48C556.078 121.824 557.614 120.24 559.918 120.24C561.142 120.24 562.03 120.648 562.678 121.032C563.038 121.248 563.374 121.512 563.638 121.8L562.438 123C562.27 122.784 562.054 122.568 561.814 122.4C561.358 122.112 560.758 121.8 559.918 121.8C558.598 121.8 557.758 122.64 557.758 123.48C557.758 126 563.998 124.68 563.998 128.76C563.998 130.68 562.414 132.24 559.798 132.24C558.358 132.24 557.302 131.736 556.606 131.232C556.198 130.944 555.862 130.608 555.598 130.2ZM575.75 137.04V130.32C575.486 130.68 575.15 130.992 574.766 131.28C574.094 131.76 573.134 132.24 571.79 132.24C568.67 132.24 566.15 129.72 566.15 126.24C566.15 122.76 568.67 120.24 571.79 120.24C573.134 120.24 574.094 120.72 574.766 121.2C575.15 121.488 575.486 121.8 575.75 122.16V120.48H577.43V137.04H575.75ZM571.79 130.68C573.806 130.68 575.75 128.76 575.75 126.24C575.75 123.72 573.806 121.8 571.79 121.8C569.606 121.8 567.83 123.624 567.83 126.24C567.83 128.856 569.606 130.68 571.79 130.68ZM581.264 127.2V120.48H582.944V127.2C582.944 129.24 584.384 130.68 586.184 130.68C588.104 130.68 589.664 129.144 589.664 126.84V120.48H591.344V132H589.664V130.44C589.424 130.776 589.112 131.088 588.752 131.352C588.104 131.808 587.192 132.24 585.944 132.24C583.304 132.24 581.264 130.2 581.264 127.2ZM603.943 128.76L605.023 129.84C604.687 130.296 604.279 130.68 603.799 131.04C602.959 131.64 601.783 132.24 600.223 132.24C597.079 132.24 594.463 129.6 594.463 126.24C594.463 122.88 597.103 120.24 600.103 120.24C603.247 120.24 605.623 122.64 605.623 126C605.623 126.264 605.575 126.456 605.551 126.624L605.503 126.864L596.143 126.84C596.263 128.88 598.039 130.68 600.223 130.68C601.447 130.68 602.335 130.2 602.983 129.72C603.343 129.432 603.679 129.12 603.943 128.76ZM596.143 125.4H603.943C603.679 123.36 602.143 121.8 600.103 121.8C598.039 121.8 596.407 123.48 596.143 125.4ZM50.56 157.76L51.64 158.84C51.304 159.296 50.896 159.68 50.416 160.04C49.576 160.64 48.4 161.24 46.84 161.24C43.696 161.24 41.08 158.6 41.08 155.24C41.08 151.88 43.72 149.24 46.72 149.24C49.864 149.24 52.24 151.64 52.24 155C52.24 155.264 52.192 155.456 52.168 155.624L52.12 155.864L42.76 155.84C42.88 157.88 44.656 159.68 46.84 159.68C48.064 159.68 48.952 159.2 49.6 158.72C49.96 158.432 50.296 158.12 50.56 157.76ZM42.76 154.4H50.56C50.296 152.36 48.76 150.8 46.72 150.8C44.656 150.8 43.024 152.48 42.76 154.4ZM55.2325 161V149.48H56.9125V151.04C57.1765 150.728 57.4885 150.416 57.8485 150.152C58.4965 149.696 59.4085 149.24 60.7525 149.24H61.2325V150.92H60.5125C58.5925 150.92 56.9125 152.36 56.9125 154.64V161H55.2325ZM68.3116 161.24C65.0716 161.24 62.4316 158.6 62.4316 155.24C62.4316 151.88 65.0716 149.24 68.3116 149.24C71.5516 149.24 74.1916 151.88 74.1916 155.24C74.1916 158.6 71.5516 161.24 68.3116 161.24ZM68.3116 159.68C70.5916 159.68 72.5116 157.76 72.5116 155.24C72.5116 152.72 70.5916 150.8 68.3116 150.8C66.0316 150.8 64.1116 152.72 64.1116 155.24C64.1116 157.736 66.0316 159.68 68.3116 159.68ZM76.1134 159.2L77.3134 158C77.5294 158.312 77.7934 158.6 78.0814 158.84C78.5854 159.296 79.3534 159.68 80.3134 159.68C82.0174 159.68 82.8334 158.84 82.8334 157.76C82.8334 155.12 76.5934 156.44 76.5934 152.48C76.5934 150.824 78.1294 149.24 80.4334 149.24C81.6574 149.24 82.5454 149.648 83.1934 150.032C83.5534 150.248 83.8894 150.512 84.1534 150.8L82.9534 152C82.7854 151.784 82.5694 151.568 82.3294 151.4C81.8734 151.112 81.2734 150.8 80.4334 150.8C79.1134 150.8 78.2734 151.64 78.2734 152.48C78.2734 155 84.5134 153.68 84.5134 157.76C84.5134 159.68 82.9294 161.24 80.3134 161.24C78.8734 161.24 77.8174 160.736 77.1214 160.232C76.7134 159.944 76.3774 159.608 76.1134 159.2ZM86.9059 160.04C86.9059 159.296 87.3619 158.84 88.1059 158.84C88.8499 158.84 89.3059 159.296 89.3059 160.04C89.3059 160.784 88.8499 161.24 88.1059 161.24C87.3619 161.24 86.9059 160.784 86.9059 160.04ZM98.1841 161V144.2H99.7441L106.704 153.32L113.664 144.2H115.224V161H113.424V147.32L106.704 156.2L99.9841 147.32V161H98.1841ZM126.622 161V159.44C126.382 159.776 126.07 160.088 125.71 160.352C125.062 160.808 124.15 161.24 122.902 161.24C120.502 161.24 118.822 159.56 118.822 157.88C118.822 155.96 119.998 154.76 122.182 154.4L126.622 153.68C126.622 151.976 125.446 150.8 123.742 150.8C122.71 150.8 121.918 151.232 121.366 151.64C121.054 151.904 120.766 152.168 120.502 152.48L119.422 151.4C119.734 150.992 120.118 150.632 120.55 150.32C121.294 149.768 122.326 149.24 123.742 149.24C126.382 149.24 128.302 151.16 128.302 153.68V161H126.622ZM126.622 155.84V155.12L122.662 155.84C121.222 156.104 120.502 156.8 120.502 157.88C120.502 158.84 121.342 159.68 122.902 159.68C125.086 159.68 126.622 158.144 126.622 155.84ZM132.857 157.88V151.04H130.697V149.48H132.017C132.665 149.48 132.977 149.072 132.977 148.28V145.64H134.537V149.48H137.057V151.04H134.537V157.88C134.537 159.104 135.137 159.68 136.097 159.68C136.505 159.68 136.913 159.608 137.201 159.512C137.369 159.44 137.537 159.392 137.657 159.32V160.88C137.513 160.952 137.345 161 137.177 161.072C136.889 161.168 136.481 161.24 136.025 161.24C134.033 161.24 132.857 160.064 132.857 157.88ZM141.505 157.88V151.04H139.345V149.48H140.665C141.313 149.48 141.625 149.072 141.625 148.28V145.64H143.185V149.48H145.705V151.04H143.185V157.88C143.185 159.104 143.785 159.68 144.745 159.68C145.153 159.68 145.561 159.608 145.849 159.512C146.017 159.44 146.185 159.392 146.305 159.32V160.88C146.161 160.952 145.993 161 145.825 161.072C145.537 161.168 145.129 161.24 144.673 161.24C142.681 161.24 141.505 160.064 141.505 157.88ZM148.953 145.64C148.953 145.04 149.433 144.56 150.033 144.56C150.633 144.56 151.113 145.04 151.113 145.64C151.113 146.24 150.633 146.72 150.033 146.72C149.433 146.72 148.953 146.24 148.953 145.64ZM149.193 161V149.48H150.873V161H149.193ZM153.645 159.2L154.845 158C155.061 158.312 155.325 158.6 155.613 158.84C156.117 159.296 156.885 159.68 157.845 159.68C159.549 159.68 160.365 158.84 160.365 157.76C160.365 155.12 154.125 156.44 154.125 152.48C154.125 150.824 155.661 149.24 157.965 149.24C159.189 149.24 160.077 149.648 160.725 150.032C161.085 150.248 161.421 150.512 161.685 150.8L160.485 152C160.317 151.784 160.101 151.568 159.861 151.4C159.405 151.112 158.805 150.8 157.965 150.8C156.645 150.8 155.805 151.64 155.805 152.48C155.805 155 162.045 153.68 162.045 157.76C162.045 159.68 160.461 161.24 157.845 161.24C156.405 161.24 155.349 160.736 154.653 160.232C154.245 159.944 153.909 159.608 153.645 159.2ZM168.996 159.2L170.196 158C170.412 158.312 170.676 158.6 170.964 158.84C171.468 159.296 172.236 159.68 173.196 159.68C174.9 159.68 175.716 158.84 175.716 157.76C175.716 155.12 169.476 156.44 169.476 152.48C169.476 150.824 171.012 149.24 173.316 149.24C174.54 149.24 175.428 149.648 176.076 150.032C176.436 150.248 176.772 150.512 177.036 150.8L175.836 152C175.668 151.784 175.452 151.568 175.212 151.4C174.756 151.112 174.156 150.8 173.316 150.8C171.996 150.8 171.156 151.64 171.156 152.48C171.156 155 177.396 153.68 177.396 157.76C177.396 159.68 175.812 161.24 173.196 161.24C171.756 161.24 170.7 160.736 170.004 160.232C169.596 159.944 169.26 159.608 168.996 159.2ZM185.429 161.24C182.189 161.24 179.549 158.6 179.549 155.24C179.549 151.88 182.189 149.24 185.429 149.24C188.669 149.24 191.309 151.88 191.309 155.24C191.309 158.6 188.669 161.24 185.429 161.24ZM185.429 159.68C187.709 159.68 189.629 157.76 189.629 155.24C189.629 152.72 187.709 150.8 185.429 150.8C183.149 150.8 181.229 152.72 181.229 155.24C181.229 157.736 183.149 159.68 185.429 159.68ZM194.431 161V144.2H196.111V161H194.431ZM200.196 161V144.2H201.876V161H200.196ZM205.602 145.64C205.602 145.04 206.082 144.56 206.682 144.56C207.282 144.56 207.762 145.04 207.762 145.64C207.762 146.24 207.282 146.72 206.682 146.72C206.082 146.72 205.602 146.24 205.602 145.64ZM205.842 161V149.48H207.522V161H205.842ZM219.893 157.76L221.093 158.84C220.733 159.296 220.301 159.68 219.821 160.04C218.981 160.64 217.805 161.24 216.293 161.24C213.149 161.24 210.533 158.6 210.533 155.24C210.533 151.88 213.149 149.24 216.293 149.24C217.805 149.24 218.957 149.816 219.749 150.392C220.205 150.728 220.613 151.112 220.973 151.52L219.773 152.72C219.509 152.36 219.221 152.048 218.885 151.76C218.309 151.28 217.421 150.8 216.293 150.8C214.133 150.8 212.213 152.72 212.213 155.24C212.213 157.76 214.133 159.68 216.293 159.68C217.421 159.68 218.309 159.2 218.957 158.72C219.317 158.432 219.629 158.12 219.893 157.76ZM223.485 145.64C223.485 145.04 223.965 144.56 224.565 144.56C225.165 144.56 225.645 145.04 225.645 145.64C225.645 146.24 225.165 146.72 224.565 146.72C223.965 146.72 223.485 146.24 223.485 145.64ZM223.725 161V149.48H225.405V161H223.725ZM230.216 157.88V151.04H228.056V149.48H229.376C230.024 149.48 230.336 149.072 230.336 148.28V145.64H231.896V149.48H234.416V151.04H231.896V157.88C231.896 159.104 232.496 159.68 233.456 159.68C233.864 159.68 234.272 159.608 234.56 159.512C234.728 159.44 234.896 159.392 235.016 159.32V160.88C234.872 160.952 234.704 161 234.536 161.072C234.248 161.168 233.84 161.24 233.384 161.24C231.392 161.24 230.216 160.064 230.216 157.88ZM237.67 156.2V149.48H239.35V156.2C239.35 158.24 240.79 159.68 242.59 159.68C244.51 159.68 246.07 158.144 246.07 155.84V149.48H247.75V161H246.07V159.44C245.83 159.776 245.518 160.088 245.158 160.352C244.51 160.808 243.598 161.24 242.35 161.24C239.71 161.24 237.67 159.2 237.67 156.2ZM260.469 161V159.32C260.205 159.68 259.869 159.992 259.485 160.28C258.813 160.76 257.853 161.24 256.509 161.24C253.389 161.24 250.869 158.72 250.869 155.24C250.869 151.76 253.389 149.24 256.509 149.24C257.853 149.24 258.813 149.72 259.485 150.2C259.869 150.488 260.205 150.8 260.469 151.16V144.2H262.149V161H260.469ZM256.509 159.68C258.525 159.68 260.469 157.76 260.469 155.24C260.469 152.72 258.525 150.8 256.509 150.8C254.325 150.8 252.549 152.624 252.549 155.24C252.549 157.856 254.325 159.68 256.509 159.68ZM265.86 145.64C265.86 145.04 266.34 144.56 266.94 144.56C267.54 144.56 268.02 145.04 268.02 145.64C268.02 146.24 267.54 146.72 266.94 146.72C266.34 146.72 265.86 146.24 265.86 145.64ZM266.1 161V149.48H267.78V161H266.1ZM271.631 161V149.48H273.311V151.16C273.551 150.8 273.863 150.488 274.223 150.2C274.871 149.72 275.759 149.24 277.031 149.24C279.791 149.24 281.711 151.16 281.711 154.16V161H280.031V154.16C280.031 152.12 278.735 150.8 276.911 150.8C274.871 150.8 273.311 152.336 273.311 154.64V161H271.631ZM290.592 166.04V149.48H292.272V151.16C292.536 150.8 292.848 150.488 293.256 150.2C293.904 149.72 294.888 149.24 296.232 149.24C299.352 149.24 301.872 151.76 301.872 155.24C301.872 158.72 299.352 161.24 296.232 161.24C294.888 161.24 293.904 160.76 293.256 160.28C292.848 159.992 292.536 159.68 292.272 159.32V166.04H290.592ZM296.232 159.68C298.416 159.68 300.192 157.856 300.192 155.24C300.192 152.624 298.416 150.8 296.232 150.8C294.216 150.8 292.272 152.72 292.272 155.24C292.272 157.76 294.216 159.68 296.232 159.68ZM304.865 156.2V149.48H306.545V156.2C306.545 158.24 307.985 159.68 309.785 159.68C311.705 159.68 313.265 158.144 313.265 155.84V149.48H314.945V161H313.265V159.44C313.025 159.776 312.713 160.088 312.353 160.352C311.705 160.808 310.793 161.24 309.545 161.24C306.905 161.24 304.865 159.2 304.865 156.2ZM318.904 161V149.48H320.584V151.04C320.848 150.728 321.16 150.416 321.52 150.152C322.168 149.696 323.08 149.24 324.424 149.24H324.904V150.92H324.184C322.264 150.92 320.584 152.36 320.584 154.64V161H318.904ZM327.178 156.2V149.48H328.858V156.2C328.858 158.24 330.298 159.68 332.098 159.68C334.018 159.68 335.578 158.144 335.578 155.84V149.48H337.258V161H335.578V159.44C335.338 159.776 335.026 160.088 334.666 160.352C334.018 160.808 333.106 161.24 331.858 161.24C329.218 161.24 327.178 159.2 327.178 156.2ZM340.137 159.2L341.337 158C341.553 158.312 341.817 158.6 342.105 158.84C342.609 159.296 343.377 159.68 344.337 159.68C346.041 159.68 346.857 158.84 346.857 157.76C346.857 155.12 340.617 156.44 340.617 152.48C340.617 150.824 342.153 149.24 344.457 149.24C345.681 149.24 346.569 149.648 347.217 150.032C347.577 150.248 347.913 150.512 348.177 150.8L346.977 152C346.809 151.784 346.593 151.568 346.353 151.4C345.897 151.112 345.297 150.8 344.457 150.8C343.137 150.8 342.297 151.64 342.297 152.48C342.297 155 348.537 153.68 348.537 157.76C348.537 159.68 346.953 161.24 344.337 161.24C342.897 161.24 341.841 160.736 341.145 160.232C340.737 159.944 340.401 159.608 340.137 159.2ZM365.328 166.04V159.32C365.064 159.68 364.728 159.992 364.344 160.28C363.672 160.76 362.712 161.24 361.368 161.24C358.248 161.24 355.728 158.72 355.728 155.24C355.728 151.76 358.248 149.24 361.368 149.24C362.712 149.24 363.672 149.72 364.344 150.2C364.728 150.488 365.064 150.8 365.328 151.16V149.48H367.008V166.04H365.328ZM361.368 159.68C363.384 159.68 365.328 157.76 365.328 155.24C365.328 152.72 363.384 150.8 361.368 150.8C359.184 150.8 357.408 152.624 357.408 155.24C357.408 157.856 359.184 159.68 361.368 159.68ZM370.842 156.2V149.48H372.522V156.2C372.522 158.24 373.962 159.68 375.762 159.68C377.682 159.68 379.242 158.144 379.242 155.84V149.48H380.922V161H379.242V159.44C379.002 159.776 378.69 160.088 378.33 160.352C377.682 160.808 376.77 161.24 375.522 161.24C372.882 161.24 370.842 159.2 370.842 156.2ZM384.641 145.64C384.641 145.04 385.121 144.56 385.721 144.56C386.321 144.56 386.801 145.04 386.801 145.64C386.801 146.24 386.321 146.72 385.721 146.72C385.121 146.72 384.641 146.24 384.641 145.64ZM384.881 161V149.48H386.561V161H384.881ZM389.332 159.2L390.532 158C390.748 158.312 391.012 158.6 391.3 158.84C391.804 159.296 392.572 159.68 393.532 159.68C395.236 159.68 396.052 158.84 396.052 157.76C396.052 155.12 389.812 156.44 389.812 152.48C389.812 150.824 391.348 149.24 393.652 149.24C394.876 149.24 395.764 149.648 396.412 150.032C396.772 150.248 397.108 150.512 397.372 150.8L396.172 152C396.004 151.784 395.788 151.568 395.548 151.4C395.092 151.112 394.492 150.8 393.652 150.8C392.332 150.8 391.492 151.64 391.492 152.48C391.492 155 397.732 153.68 397.732 157.76C397.732 159.68 396.148 161.24 393.532 161.24C392.092 161.24 391.036 160.736 390.34 160.232C389.932 159.944 389.596 159.608 389.332 159.2ZM405.764 161V149.48H407.444V150.92C407.66 150.608 407.9 150.344 408.212 150.08C408.764 149.672 409.532 149.24 410.684 149.24C412.052 149.24 413.012 149.768 413.588 150.272C413.924 150.56 414.188 150.896 414.404 151.28C414.62 150.896 414.932 150.56 415.292 150.272C415.94 149.768 416.924 149.24 418.364 149.24C420.884 149.24 422.804 150.944 422.804 154.16V161H421.124V154.16C421.124 151.952 419.948 150.8 418.244 150.8C416.588 150.8 415.124 152.24 415.124 154.64V161H413.444V154.16C413.444 151.976 412.268 150.8 410.564 150.8C408.908 150.8 407.444 152.24 407.444 154.64V161H405.764ZM433.607 161V159.44C433.367 159.776 433.055 160.088 432.695 160.352C432.047 160.808 431.135 161.24 429.887 161.24C427.487 161.24 425.807 159.56 425.807 157.88C425.807 155.96 426.983 154.76 429.167 154.4L433.607 153.68C433.607 151.976 432.431 150.8 430.727 150.8C429.695 150.8 428.903 151.232 428.351 151.64C428.039 151.904 427.751 152.168 427.487 152.48L426.407 151.4C426.719 150.992 427.103 150.632 427.535 150.32C428.279 149.768 429.311 149.24 430.727 149.24C433.367 149.24 435.287 151.16 435.287 153.68V161H433.607ZM433.607 155.84V155.12L429.647 155.84C428.207 156.104 427.487 156.8 427.487 157.88C427.487 158.84 428.327 159.68 429.887 159.68C432.071 159.68 433.607 158.144 433.607 155.84ZM439.235 161V144.2H440.915V161H439.235ZM453.521 157.76L454.601 158.84C454.265 159.296 453.857 159.68 453.377 160.04C452.537 160.64 451.361 161.24 449.801 161.24C446.657 161.24 444.041 158.6 444.041 155.24C444.041 151.88 446.681 149.24 449.681 149.24C452.825 149.24 455.201 151.64 455.201 155C455.201 155.264 455.153 155.456 455.129 155.624L455.081 155.864L445.721 155.84C445.841 157.88 447.617 159.68 449.801 159.68C451.025 159.68 451.913 159.2 452.561 158.72C452.921 158.432 453.257 158.12 453.521 157.76ZM445.721 154.4H453.521C453.257 152.36 451.721 150.8 449.681 150.8C447.617 150.8 445.985 152.48 445.721 154.4ZM457.113 159.2L458.313 158C458.529 158.312 458.793 158.6 459.081 158.84C459.585 159.296 460.353 159.68 461.313 159.68C463.017 159.68 463.833 158.84 463.833 157.76C463.833 155.12 457.593 156.44 457.593 152.48C457.593 150.824 459.129 149.24 461.433 149.24C462.657 149.24 463.545 149.648 464.193 150.032C464.553 150.248 464.889 150.512 465.153 150.8L463.953 152C463.785 151.784 463.569 151.568 463.329 151.4C462.873 151.112 462.273 150.8 461.433 150.8C460.113 150.8 459.273 151.64 459.273 152.48C459.273 155 465.513 153.68 465.513 157.76C465.513 159.68 463.929 161.24 461.313 161.24C459.873 161.24 458.817 160.736 458.121 160.232C457.713 159.944 457.377 159.608 457.113 159.2ZM468.506 156.2V149.48H470.186V156.2C470.186 158.24 471.626 159.68 473.426 159.68C475.346 159.68 476.906 158.144 476.906 155.84V149.48H478.586V161H476.906V159.44C476.666 159.776 476.354 160.088 475.994 160.352C475.346 160.808 474.434 161.24 473.186 161.24C470.546 161.24 468.506 159.2 468.506 156.2ZM489.505 161V159.44C489.265 159.776 488.953 160.088 488.593 160.352C487.945 160.808 487.033 161.24 485.785 161.24C483.385 161.24 481.705 159.56 481.705 157.88C481.705 155.96 482.881 154.76 485.065 154.4L489.505 153.68C489.505 151.976 488.329 150.8 486.625 150.8C485.593 150.8 484.801 151.232 484.249 151.64C483.937 151.904 483.649 152.168 483.385 152.48L482.305 151.4C482.617 150.992 483.001 150.632 483.433 150.32C484.177 149.768 485.209 149.24 486.625 149.24C489.265 149.24 491.185 151.16 491.185 153.68V161H489.505ZM489.505 155.84V155.12L485.545 155.84C484.105 156.104 483.385 156.8 483.385 157.88C483.385 158.84 484.225 159.68 485.785 159.68C487.969 159.68 489.505 158.144 489.505 155.84ZM503.774 161V159.32C503.51 159.68 503.174 159.992 502.79 160.28C502.118 160.76 501.158 161.24 499.814 161.24C496.694 161.24 494.174 158.72 494.174 155.24C494.174 151.76 496.694 149.24 499.814 149.24C501.158 149.24 502.118 149.72 502.79 150.2C503.174 150.488 503.51 150.8 503.774 151.16V144.2H505.454V161H503.774ZM499.814 159.68C501.83 159.68 503.774 157.76 503.774 155.24C503.774 152.72 501.83 150.8 499.814 150.8C497.63 150.8 495.854 152.624 495.854 155.24C495.854 157.856 497.63 159.68 499.814 159.68ZM516.364 161V159.44C516.124 159.776 515.812 160.088 515.452 160.352C514.804 160.808 513.892 161.24 512.644 161.24C510.244 161.24 508.564 159.56 508.564 157.88C508.564 155.96 509.74 154.76 511.924 154.4L516.364 153.68C516.364 151.976 515.188 150.8 513.484 150.8C512.452 150.8 511.66 151.232 511.108 151.64C510.796 151.904 510.508 152.168 510.244 152.48L509.164 151.4C509.476 150.992 509.86 150.632 510.292 150.32C511.036 149.768 512.068 149.24 513.484 149.24C516.124 149.24 518.044 151.16 518.044 153.68V161H516.364ZM516.364 155.84V155.12L512.404 155.84C510.964 156.104 510.244 156.8 510.244 157.88C510.244 158.84 511.084 159.68 512.644 159.68C514.828 159.68 516.364 158.144 516.364 155.84ZM526.912 161V149.48H528.592V151.16C528.832 150.8 529.144 150.488 529.504 150.2C530.152 149.72 531.04 149.24 532.312 149.24C535.072 149.24 536.992 151.16 536.992 154.16V161H535.312V154.16C535.312 152.12 534.016 150.8 532.192 150.8C530.152 150.8 528.592 152.336 528.592 154.64V161H526.912ZM540.594 145.64C540.594 145.04 541.074 144.56 541.674 144.56C542.274 144.56 542.754 145.04 542.754 145.64C542.754 146.24 542.274 146.72 541.674 146.72C541.074 146.72 540.594 146.24 540.594 145.64ZM540.834 161V149.48H542.514V161H540.834ZM545.285 159.2L546.485 158C546.701 158.312 546.965 158.6 547.253 158.84C547.757 159.296 548.525 159.68 549.485 159.68C551.189 159.68 552.005 158.84 552.005 157.76C552.005 155.12 545.765 156.44 545.765 152.48C545.765 150.824 547.301 149.24 549.605 149.24C550.829 149.24 551.717 149.648 552.365 150.032C552.725 150.248 553.061 150.512 553.325 150.8L552.125 152C551.957 151.784 551.741 151.568 551.501 151.4C551.045 151.112 550.445 150.8 549.605 150.8C548.285 150.8 547.445 151.64 547.445 152.48C547.445 155 553.685 153.68 553.685 157.76C553.685 159.68 552.101 161.24 549.485 161.24C548.045 161.24 546.989 160.736 546.293 160.232C545.885 159.944 545.549 159.608 545.285 159.2ZM556.438 145.64C556.438 145.04 556.918 144.56 557.518 144.56C558.118 144.56 558.598 145.04 558.598 145.64C558.598 146.24 558.118 146.72 557.518 146.72C556.918 146.72 556.438 146.24 556.438 145.64ZM556.678 161V149.48H558.358V161H556.678ZM575.888 157.76L576.968 158.84C576.632 159.296 576.224 159.68 575.744 160.04C574.904 160.64 573.728 161.24 572.168 161.24C569.024 161.24 566.408 158.6 566.408 155.24C566.408 151.88 569.048 149.24 572.048 149.24C575.192 149.24 577.568 151.64 577.568 155C577.568 155.264 577.52 155.456 577.496 155.624L577.448 155.864L568.088 155.84C568.208 157.88 569.984 159.68 572.168 159.68C573.392 159.68 574.28 159.2 574.928 158.72C575.288 158.432 575.624 158.12 575.888 157.76ZM568.088 154.4H575.888C575.624 152.36 574.088 150.8 572.048 150.8C569.984 150.8 568.352 152.48 568.088 154.4ZM580.201 163.64L581.281 162.56C581.545 162.92 581.881 163.232 582.241 163.52C582.889 164 583.777 164.48 585.001 164.48C587.185 164.48 588.961 162.68 588.961 160.28V158.96C588.745 159.296 588.433 159.608 588.073 159.872C587.425 160.328 586.489 160.76 585.121 160.76C582.121 160.76 579.721 158.24 579.721 155C579.721 151.76 582.121 149.24 585.121 149.24C586.489 149.24 587.425 149.696 588.073 150.152C588.433 150.416 588.745 150.728 588.961 151.04V149.48H590.641V160.28C590.641 163.52 588.121 166.04 585.001 166.04C583.369 166.04 582.169 165.44 581.377 164.84C580.921 164.48 580.513 164.096 580.201 163.64ZM585.121 159.2C587.281 159.2 588.961 157.4 588.961 155C588.961 152.6 587.281 150.8 585.121 150.8C583.105 150.8 581.401 152.6 581.401 155C581.401 157.4 583.105 159.2 585.121 159.2ZM603.123 157.76L604.203 158.84C603.867 159.296 603.459 159.68 602.979 160.04C602.139 160.64 600.963 161.24 599.403 161.24C596.259 161.24 593.643 158.6 593.643 155.24C593.643 151.88 596.283 149.24 599.283 149.24C602.427 149.24 604.803 151.64 604.803 155C604.803 155.264 604.755 155.456 604.731 155.624L604.682 155.864L595.323 155.84C595.443 157.88 597.219 159.68 599.403 159.68C600.627 159.68 601.515 159.2 602.163 158.72C602.523 158.432 602.859 158.12 603.123 157.76ZM595.323 154.4H603.123C602.859 152.36 601.323 150.8 599.283 150.8C597.219 150.8 595.587 152.48 595.323 154.4ZM608.755 157.88V151.04H606.595V149.48H607.915C608.563 149.48 608.875 149.072 608.875 148.28V145.64H610.435V149.48H612.955V151.04H610.435V157.88C610.435 159.104 611.035 159.68 611.995 159.68C612.403 159.68 612.811 159.608 613.099 159.512C613.267 159.44 613.435 159.392 613.555 159.32V160.88C613.411 160.952 613.243 161 613.075 161.072C612.787 161.168 612.379 161.24 611.923 161.24C609.931 161.24 608.755 160.064 608.755 157.88ZM615.843 160.04C615.843 159.296 616.299 158.84 617.043 158.84C617.787 158.84 618.243 159.296 618.243 160.04C618.243 160.784 617.787 161.24 617.043 161.24C616.299 161.24 615.843 160.784 615.843 160.04Z" fill="#0F0F0F"/>
<path d="M44.4 225.28H47.12L45.792 221.6H45.728L44.4 225.28ZM40.08 230L44.4 218.8H47.12L51.44 230H48.88L47.92 227.44H43.6L42.64 230H40.08ZM52.5556 230V222.16H54.7156V223.28H54.7956C54.9396 223.04 55.0996 222.832 55.3076 222.64C55.6756 222.32 56.1876 222 56.9556 222C57.7876 222 58.3796 222.352 58.7476 222.688C58.9556 222.88 59.1316 223.104 59.2756 223.36H59.3556C59.5316 223.104 59.7556 222.88 60.0116 222.688C60.4436 222.352 61.0676 222 61.9156 222C63.4516 222 64.6356 223.2 64.6356 225.12V230H62.4756V225.44C62.4756 224.544 62.0116 224.08 61.1956 224.08C60.2996 224.08 59.6756 224.72 59.6756 225.68V230H57.5156V225.44C57.5156 224.544 57.0516 224.08 56.2356 224.08C55.3396 224.08 54.7156 224.72 54.7156 225.68V230H52.5556ZM71.1119 230V229.04H71.0319C70.8559 229.248 70.6639 229.44 70.4399 229.6C70.0559 229.904 69.4639 230.16 68.7119 230.16C67.2719 230.16 66.3119 229.2 66.3119 227.92C66.3119 226.64 67.1759 225.664 68.6319 225.408L71.1119 224.96C71.0319 224.4 70.5679 223.92 69.7519 223.92C69.1919 223.92 68.7599 224.128 68.4559 224.368C68.2799 224.496 68.1199 224.64 67.9919 224.8L66.7119 223.52C66.9359 223.248 67.2079 222.992 67.5279 222.768C68.0879 222.384 68.8719 222 69.9119 222C71.9119 222 73.2719 223.376 73.2719 225.12V230H71.1119ZM71.1119 226.64V226.48L69.3519 226.8C68.7919 226.912 68.4719 227.2 68.4719 227.6C68.4719 228.096 68.7919 228.4 69.4319 228.4C70.3919 228.4 71.1119 227.68 71.1119 226.64ZM75.3525 230V222.16H77.5125V223.28H77.5925C77.7685 223.04 77.9605 222.832 78.1845 222.64C78.5685 222.32 79.1445 222 79.9125 222C81.5125 222 82.7925 223.28 82.7925 225.28V230H80.6325V225.6C80.6325 224.64 80.0885 224.08 79.1925 224.08C78.2325 224.08 77.5125 224.8 77.5125 225.84V230H75.3525ZM88.5481 228.16C89.6681 228.16 90.5481 227.28 90.5481 226.08C90.5481 224.88 89.6681 224 88.5481 224C87.4281 224 86.5481 224.88 86.5481 226.08C86.5481 227.28 87.4281 228.16 88.5481 228.16ZM84.3881 226.08C84.3881 223.84 86.2281 222 88.5481 222C90.8681 222 92.7081 223.84 92.7081 226.08C92.7081 228.32 90.8681 230.16 88.5481 230.16C86.2281 230.16 84.3881 228.32 84.3881 226.08ZM95.9376 230L93.1856 222.16H95.5056L96.9456 226.8H97.0256L98.5456 222.16H100.306L101.826 226.8H101.906L103.346 222.16H105.666L102.914 230H100.946L99.4576 225.44H99.3936L97.9056 230H95.9376ZM112.541 225.28H115.261L113.933 221.6H113.869L112.541 225.28ZM108.221 230L112.541 218.8H115.261L119.581 230H117.021L116.061 227.44H111.741L110.781 230H108.221ZM120.696 230V222.16H122.856V223.28H122.936C123.08 223.04 123.24 222.832 123.448 222.64C123.816 222.32 124.328 222 125.096 222C125.928 222 126.52 222.352 126.888 222.688C127.096 222.88 127.272 223.104 127.416 223.36H127.496C127.672 223.104 127.896 222.88 128.152 222.688C128.584 222.352 129.208 222 130.056 222C131.592 222 132.776 223.2 132.776 225.12V230H130.616V225.44C130.616 224.544 130.152 224.08 129.336 224.08C128.44 224.08 127.816 224.72 127.816 225.68V230H125.656V225.44C125.656 224.544 125.192 224.08 124.376 224.08C123.48 224.08 122.856 224.72 122.856 225.68V230H120.696ZM139.253 230V229.04H139.173C138.997 229.248 138.805 229.44 138.581 229.6C138.197 229.904 137.605 230.16 136.853 230.16C135.413 230.16 134.453 229.2 134.453 227.92C134.453 226.64 135.317 225.664 136.773 225.408L139.253 224.96C139.173 224.4 138.709 223.92 137.893 223.92C137.333 223.92 136.901 224.128 136.597 224.368C136.421 224.496 136.261 224.64 136.133 224.8L134.853 223.52C135.077 223.248 135.349 222.992 135.669 222.768C136.229 222.384 137.013 222 138.053 222C140.053 222 141.413 223.376 141.413 225.12V230H139.253ZM139.253 226.64V226.48L137.493 226.8C136.933 226.912 136.613 227.2 136.613 227.6C136.613 228.096 136.933 228.4 137.573 228.4C138.533 228.4 139.253 227.68 139.253 226.64ZM143.493 230V222.16H145.653V223.28H145.733C145.909 223.04 146.101 222.832 146.325 222.64C146.709 222.32 147.285 222 148.053 222C149.653 222 150.933 223.28 150.933 225.28V230H148.773V225.6C148.773 224.64 148.229 224.08 147.333 224.08C146.373 224.08 145.653 224.8 145.653 225.84V230H143.493Z" fill="#6CCAB1"/>
<path d="M41.47 248V238.2H42.38L46.44 243.52L50.5 238.2H51.41V248H50.36V240.02L46.44 245.2L42.52 240.02V248H41.47ZM58.0589 248V247.09C57.9189 247.286 57.7369 247.468 57.5269 247.622C57.1489 247.888 56.6169 248.14 55.8889 248.14C54.4889 248.14 53.5089 247.16 53.5089 246.18C53.5089 245.06 54.1949 244.36 55.4689 244.15L58.0589 243.73C58.0589 242.736 57.3729 242.05 56.3789 242.05C55.7769 242.05 55.3149 242.302 54.9929 242.54C54.8109 242.694 54.6429 242.848 54.4889 243.03L53.8589 242.4C54.0409 242.162 54.2649 241.952 54.5169 241.77C54.9509 241.448 55.5529 241.14 56.3789 241.14C57.9189 241.14 59.0389 242.26 59.0389 243.73V248H58.0589ZM58.0589 244.99V244.57L55.7489 244.99C54.9089 245.144 54.4889 245.55 54.4889 246.18C54.4889 246.74 54.9789 247.23 55.8889 247.23C57.1629 247.23 58.0589 246.334 58.0589 244.99ZM61.3423 248V238.2H62.3223V244.85L65.6823 241.28H66.8723L64.2823 244.01L67.1523 248H66.0323L63.6523 244.71L62.3223 246.11V248H61.3423ZM67.7791 246.95L68.4791 246.25C68.6051 246.432 68.7591 246.6 68.9271 246.74C69.2211 247.006 69.6691 247.23 70.2291 247.23C71.2231 247.23 71.6991 246.74 71.6991 246.11C71.6991 244.57 68.0591 245.34 68.0591 243.03C68.0591 242.064 68.9551 241.14 70.2991 241.14C71.0131 241.14 71.5311 241.378 71.9091 241.602C72.1191 241.728 72.3151 241.882 72.4691 242.05L71.7691 242.75C71.6711 242.624 71.5451 242.498 71.4051 242.4C71.1391 242.232 70.7891 242.05 70.2991 242.05C69.5291 242.05 69.0391 242.54 69.0391 243.03C69.0391 244.5 72.6791 243.73 72.6791 246.11C72.6791 247.23 71.7551 248.14 70.2291 248.14C69.3891 248.14 68.7731 247.846 68.3671 247.552C68.1291 247.384 67.9331 247.188 67.7791 246.95ZM78.4847 248V247.09C78.3447 247.286 78.1627 247.468 77.9527 247.622C77.5747 247.888 77.0427 248.14 76.3147 248.14C74.9147 248.14 73.9347 247.16 73.9347 246.18C73.9347 245.06 74.6207 244.36 75.8947 244.15L78.4847 243.73C78.4847 242.736 77.7987 242.05 76.8047 242.05C76.2027 242.05 75.7407 242.302 75.4187 242.54C75.2367 242.694 75.0687 242.848 74.9147 243.03L74.2847 242.4C74.4667 242.162 74.6907 241.952 74.9427 241.77C75.3767 241.448 75.9787 241.14 76.8047 241.14C78.3447 241.14 79.4647 242.26 79.4647 243.73V248H78.4847ZM78.4847 244.99V244.57L76.1747 244.99C75.3347 245.144 74.9147 245.55 74.9147 246.18C74.9147 246.74 75.4047 247.23 76.3147 247.23C77.5887 247.23 78.4847 246.334 78.4847 244.99ZM82.1214 246.18V242.19H80.8614V241.28H81.6314C82.0094 241.28 82.1914 241.042 82.1914 240.58V239.04H83.1014V241.28H84.5714V242.19H83.1014V246.18C83.1014 246.894 83.4514 247.23 84.0114 247.23C84.2494 247.23 84.4874 247.188 84.6554 247.132C84.7534 247.09 84.8514 247.062 84.9214 247.02V247.93C84.8374 247.972 84.7394 248 84.6414 248.042C84.4734 248.098 84.2354 248.14 83.9694 248.14C82.8074 248.14 82.1214 247.454 82.1214 246.18ZM86.6763 248V238.2H87.6563V248H86.6763ZM89.4796 250.8V249.89C89.5496 249.918 89.6336 249.946 89.7036 249.96C89.8436 250.002 89.9976 250.03 90.1796 250.03C90.8096 250.03 91.1736 249.694 91.4396 248.98L91.7896 248L89.0596 241.28H90.1096L92.2796 246.74L94.4496 241.28H95.4996L92.4196 248.98C91.8596 250.38 91.2856 250.94 90.3196 250.94C90.0816 250.94 89.8856 250.912 89.7176 250.87C89.6196 250.856 89.5496 250.828 89.4796 250.8ZM101.875 248V244.57L98.2351 238.2H99.4251L102.365 243.45H102.435L105.375 238.2H106.565L102.925 244.57V248H101.875ZM109.781 248.14C107.891 248.14 106.351 246.6 106.351 244.64C106.351 242.68 107.891 241.14 109.781 241.14C111.671 241.14 113.211 242.68 113.211 244.64C113.211 246.6 111.671 248.14 109.781 248.14ZM109.781 247.23C111.111 247.23 112.231 246.11 112.231 244.64C112.231 243.17 111.111 242.05 109.781 242.05C108.451 242.05 107.331 243.17 107.331 244.64C107.331 246.096 108.451 247.23 109.781 247.23ZM115.032 248V238.2H116.012V248H115.032ZM118.395 248V238.2H119.375V248H118.395ZM125.748 248V247.09C125.608 247.286 125.426 247.468 125.216 247.622C124.838 247.888 124.306 248.14 123.578 248.14C122.178 248.14 121.198 247.16 121.198 246.18C121.198 245.06 121.884 244.36 123.158 244.15L125.748 243.73C125.748 242.736 125.062 242.05 124.068 242.05C123.466 242.05 123.004 242.302 122.682 242.54C122.5 242.694 122.332 242.848 122.178 243.03L121.548 242.4C121.73 242.162 121.954 241.952 122.206 241.77C122.64 241.448 123.242 241.14 124.068 241.14C125.608 241.14 126.728 242.26 126.728 243.73V248H125.748ZM125.748 244.99V244.57L123.438 244.99C122.598 245.144 122.178 245.55 122.178 246.18C122.178 246.74 122.668 247.23 123.578 247.23C124.852 247.23 125.748 246.334 125.748 244.99ZM128.962 248V241.28H129.942V242.19C130.096 242.008 130.278 241.826 130.488 241.672C130.866 241.406 131.398 241.14 132.182 241.14H132.462V242.12H132.042C130.922 242.12 129.942 242.96 129.942 244.29V248H128.962ZM136.804 248V238.2H137.854V242.54H143.314V238.2H144.364V248H143.314V243.52H137.854V248H136.804ZM146.604 247.44C146.604 247.006 146.87 246.74 147.304 246.74C147.738 246.74 148.004 247.006 148.004 247.44C148.004 247.874 147.738 248.14 147.304 248.14C146.87 248.14 146.604 247.874 146.604 247.44ZM150.243 248V238.2H151.293V243.73L156.333 238.2H157.663L153.953 242.26L158.013 248H156.753L153.253 243.03L151.293 245.13V248H150.243Z" fill="#0F0F0F"/>
<path d="M59.9677 47.5874C59.8933 47.3652 59.7008 47.2033 59.4692 47.1677L53.3208 46.2282L50.566 40.3594C50.4629 40.14 50.2422 40 50 40C49.7578 40 49.5375 40.14 49.4341 40.3594L46.6793 46.2282L40.5308 47.168C40.2993 47.2033 40.1071 47.3655 40.0324 47.5877C39.958 47.8096 40.0139 48.0546 40.1777 48.2225L44.6448 52.8033L43.5891 59.274C43.5504 59.5103 43.6501 59.7481 43.846 59.8856C43.9535 59.9616 44.0794 60 44.2057 60C44.3095 60 44.4138 59.9737 44.5082 59.9219L49.9997 56.8843L55.4912 59.9219C55.5856 59.9737 55.69 60 55.7937 60C55.92 60 56.0463 59.9616 56.1534 59.8856C56.3494 59.7481 56.4491 59.5103 56.4103 59.274L55.3547 52.8033L59.8217 48.2225C59.9858 48.0543 60.0421 47.8093 59.9677 47.5874Z" fill="#A3A8D2"/>
<path d="M89.9677 47.5874C89.8933 47.3652 89.7008 47.2033 89.4692 47.1677L83.3208 46.2282L80.566 40.3594C80.4629 40.14 80.2422 40 80 40C79.7578 40 79.5375 40.14 79.4341 40.3594L76.6793 46.2282L70.5308 47.168C70.2993 47.2033 70.1071 47.3655 70.0324 47.5877C69.958 47.8096 70.0139 48.0546 70.1777 48.2225L74.6448 52.8033L73.5891 59.274C73.5504 59.5103 73.6501 59.7481 73.846 59.8856C73.9535 59.9616 74.0794 60 74.2057 60C74.3095 60 74.4138 59.9737 74.5082 59.9219L79.9997 56.8843L85.4912 59.9219C85.5856 59.9737 85.69 60 85.7937 60C85.92 60 86.0463 59.9616 86.1534 59.8856C86.3494 59.7481 86.4491 59.5103 86.4103 59.274L85.3547 52.8033L89.8217 48.2225C89.9858 48.0543 90.0421 47.8093 89.9677 47.5874Z" fill="#A3A8D2"/>
<path d="M119.968 47.5874C119.893 47.3652 119.701 47.2033 119.469 47.1677L113.321 46.2282L110.566 40.3594C110.463 40.14 110.242 40 110 40C109.758 40 109.538 40.14 109.434 40.3594L106.679 46.2282L100.531 47.168C100.299 47.2033 100.107 47.3655 100.032 47.5877C99.958 47.8096 100.014 48.0546 100.178 48.2225L104.645 52.8033L103.589 59.274C103.55 59.5103 103.65 59.7481 103.846 59.8856C103.954 59.9616 104.079 60 104.206 60C104.309 60 104.414 59.9737 104.508 59.9219L110 56.8843L115.491 59.9219C115.586 59.9737 115.69 60 115.794 60C115.92 60 116.046 59.9616 116.153 59.8856C116.349 59.7481 116.449 59.5103 116.41 59.274L115.355 52.8033L119.822 48.2225C119.986 48.0543 120.042 47.8093 119.968 47.5874Z" fill="#A3A8D2"/>
<path d="M149.968 47.5874C149.893 47.3652 149.701 47.2033 149.469 47.1677L143.321 46.2282L140.566 40.3594C140.463 40.14 140.242 40 140 40C139.758 40 139.538 40.14 139.434 40.3594L136.679 46.2282L130.531 47.168C130.299 47.2033 130.107 47.3655 130.032 47.5877C129.958 47.8096 130.014 48.0546 130.178 48.2225L134.645 52.8033L133.589 59.274C133.55 59.5103 133.65 59.7481 133.846 59.8856C133.954 59.9616 134.079 60 134.206 60C134.309 60 134.414 59.9737 134.508 59.9219L140 56.8843L145.491 59.9219C145.586 59.9737 145.69 60 145.794 60C145.92 60 146.046 59.9616 146.153 59.8856C146.349 59.7481 146.449 59.5103 146.41 59.274L145.355 52.8033L149.822 48.2225C149.986 48.0543 150.042 47.8093 149.968 47.5874Z" fill="#A3A8D2"/>
<path d="M179.968 47.5874C179.893 47.3652 179.701 47.2033 179.469 47.1677L173.321 46.2282L170.566 40.3594C170.463 40.14 170.242 40 170 40C169.758 40 169.538 40.14 169.434 40.3594L166.679 46.2282L160.531 47.168C160.299 47.2033 160.107 47.3655 160.032 47.5877C159.958 47.8096 160.014 48.0546 160.178 48.2225L164.645 52.8033L163.589 59.274C163.55 59.5103 163.65 59.7481 163.846 59.8856C163.954 59.9616 164.079 60 164.206 60C164.309 60 164.414 59.9737 164.508 59.9219L170 56.8843L175.491 59.9219C175.586 59.9737 175.69 60 175.794 60C175.92 60 176.046 59.9616 176.153 59.8856C176.349 59.7481 176.449 59.5103 176.41 59.274L175.355 52.8033L179.822 48.2225C179.986 48.0543 180.042 47.8093 179.968 47.5874Z" fill="#A3A8D2"/>
</svg>
